if (_typeface_js && _typeface_js.loadFace) _typeface_js.loadFace({"glyphs":{"0":{"ha":572,"x_min":54,"x_max":654,"o":"m 627 412 q 596 308 618 357 q 541 210 574 258 q 376 58 475 117 q 214 5 283 5 q 74 132 104 5 q 77 354 54 224 q 270 735 121 611 q 279 741 277 741 q 282 735 283 741 q 274 721 281 729 q 128 401 162 593 q 117 282 117 336 q 127 184 117 229 q 262 60 156 60 q 452 154 361 60 q 562 373 538 242 q 526 634 587 522 q 313 760 455 760 q 259 755 288 760 q 236 752 244 753 q 227 750 229 751 q 222 758 221 750 q 373 819 234 819 q 589 685 519 819 q 627 412 654 564 z "},"1":{"ha":125,"x_min":14,"x_max":250,"o":"m 243 783 q 230 723 239 764 q 205 621 220 682 q 113 268 146 403 q 69 79 79 134 q 54 21 61 35 q 28 0 41 0 q 30 89 14 0 q 144 578 39 145 q 152 618 148 597 l 162 675 q 175 735 168 709 q 191 779 182 762 q 241 821 208 821 q 243 783 250 821 z "},"2":{"ha":528,"x_min":25,"x_max":646,"o":"m 560 77 q 540 47 556 60 q 507 29 524 33 q 475 25 494 28 q 429 20 455 23 q 314 6 363 11 q 231 2 265 2 q 98 26 154 2 q 36 123 25 58 q 180 302 47 193 q 301 395 241 349 q 421 488 360 441 q 566 665 554 596 q 447 770 585 770 q 212 701 327 770 q 191 688 201 694 q 174 675 182 682 q 151 655 164 665 q 119 633 137 645 q 118 637 118 635 q 136 665 119 645 q 308 777 195 733 q 501 819 414 819 q 625 696 646 819 q 479 498 610 614 q 419 451 479 497 q 239 310 360 404 q 102 160 111 208 q 155 82 93 106 q 262 64 199 64 q 321 66 286 64 q 404 73 357 68 q 545 83 498 83 q 560 77 561 83 z "},"3":{"ha":547,"x_min":18,"x_max":643,"o":"m 575 254 q 458 71 555 147 q 265 5 374 5 q 131 30 197 5 q 21 102 58 58 q 20 110 18 104 q 40 138 22 123 q 73 154 60 154 q 81 153 77 154 q 326 67 215 67 q 442 98 403 67 q 509 215 496 141 q 477 328 519 277 q 444 358 465 341 q 393 397 423 376 q 349 444 347 430 q 463 549 353 465 q 580 680 572 634 q 539 748 587 721 q 454 771 500 771 q 336 747 404 771 q 231 688 272 724 q 178 646 183 646 q 177 648 176 646 q 180 654 177 652 q 326 772 222 724 q 500 817 416 817 q 596 791 555 817 q 634 708 643 759 q 547 583 624 654 q 485 532 516 557 q 422 480 454 506 l 534 390 q 575 254 589 334 z "},"4":{"ha":567,"x_min":52,"x_max":680,"o":"m 677 298 q 660 272 676 288 q 634 256 644 256 q 582 255 607 256 q 534 252 557 254 l 492 106 q 471 36 488 82 q 451 13 467 26 q 425 0 436 0 q 419 9 418 0 q 439 79 422 14 l 488 250 q 283 234 353 239 q 206 229 213 229 q 72 342 52 229 q 100 425 79 378 q 192 585 118 465 q 203 604 197 593 q 220 631 210 616 q 245 647 231 646 l 247 645 l 247 640 q 240 629 243 635 q 234 617 237 623 q 200 558 217 587 q 167 500 184 529 q 120 380 128 427 q 249 279 102 279 q 375 287 298 279 l 503 301 q 553 491 533 409 q 583 633 572 574 q 595 705 588 656 q 602 746 599 728 q 606 777 605 764 q 612 801 609 795 q 637 822 621 822 q 642 819 642 822 q 642 756 646 795 q 629 660 639 717 q 595 490 615 578 q 547 304 574 402 q 580 306 560 305 q 629 306 600 306 q 677 298 680 306 z "},"5":{"ha":549,"x_min":38,"x_max":654,"o":"m 560 169 q 544 126 557 149 q 432 30 511 62 q 287 2 363 2 q 38 127 87 2 q 66 152 45 147 l 68 151 q 317 50 133 50 q 404 60 360 50 q 483 95 467 74 q 500 130 496 111 q 408 332 515 217 q 354 385 380 358 q 298 437 327 411 q 207 558 234 500 q 185 671 177 623 q 252 766 194 724 q 462 819 323 819 q 649 803 579 819 q 654 798 654 802 q 634 768 652 785 q 604 750 614 750 q 555 751 585 750 q 486 755 526 752 q 417 759 447 758 q 368 760 388 760 q 250 704 260 760 q 250 673 248 690 q 306 547 260 609 q 404 443 336 509 q 500 345 473 376 q 560 169 574 248 z "},"6":{"ha":600,"x_min":14,"x_max":646,"o":"m 629 257 q 589 162 621 205 q 429 41 532 83 q 242 5 340 5 q 54 234 14 5 q 97 378 66 302 q 182 542 129 454 q 288 697 235 630 q 399 814 342 764 q 413 821 406 821 q 416 817 418 821 q 412 807 416 812 q 284 651 341 732 q 183 481 228 570 q 134 370 153 421 q 109 277 116 319 q 134 116 90 172 q 281 60 178 60 q 452 90 376 60 q 564 215 549 131 q 499 359 580 309 q 330 398 433 398 q 309 396 324 398 q 297 395 302 395 q 290 395 292 395 q 269 405 267 395 q 398 460 277 460 q 570 412 504 460 q 629 257 646 357 z "},"7":{"ha":544,"x_min":113,"x_max":701,"o":"m 680 704 q 572 534 668 644 l 399 339 q 308 232 349 281 q 237 138 268 182 q 210 96 226 121 q 172 37 194 72 q 124 1 148 1 q 116 12 113 1 q 509 509 130 93 q 618 673 609 619 q 440 772 637 772 q 285 762 376 772 q 193 751 227 755 q 148 748 159 748 q 132 751 132 748 q 159 777 135 764 q 211 790 171 783 q 323 804 252 797 q 431 815 389 812 q 494 819 473 819 q 680 704 701 819 z "},"8":{"ha":576,"x_min":29,"x_max":671,"o":"m 539 229 q 491 373 553 309 q 363 460 462 402 q 110 186 125 271 q 172 89 100 123 q 302 65 229 65 q 431 89 379 65 q 539 229 522 135 m 604 267 q 470 73 583 151 q 244 1 366 1 q 105 33 165 1 q 41 144 29 74 q 334 479 62 262 q 267 523 294 505 q 223 555 239 542 q 161 665 153 614 q 290 785 175 744 q 470 814 370 814 q 669 772 596 814 q 671 766 671 770 q 645 745 669 745 q 614 751 633 745 q 586 760 590 760 q 522 768 555 765 q 450 771 489 771 q 321 757 385 771 q 221 699 227 737 q 397 528 210 638 q 461 577 422 547 q 550 650 499 608 q 602 688 590 688 q 611 681 612 688 q 428 511 606 652 q 510 460 477 483 q 560 420 543 438 q 604 267 619 356 z "},"9":{"ha":595,"x_min":89,"x_max":708,"o":"m 691 598 q 534 307 670 479 q 470 230 509 276 q 380 120 431 184 q 351 83 368 105 q 310 30 334 60 q 270 2 286 2 q 262 13 259 2 q 265 20 262 16 q 399 195 302 79 q 488 302 452 256 q 543 376 523 347 q 629 564 614 480 q 597 707 645 656 q 460 760 551 760 q 278 709 367 760 q 161 565 176 653 q 205 446 147 492 q 334 405 256 405 q 428 426 386 405 q 488 463 455 439 q 521 484 513 484 q 522 480 524 484 l 519 473 q 283 357 433 357 q 147 401 199 357 q 103 534 89 452 q 262 737 124 648 q 511 817 387 817 q 659 757 608 817 q 691 598 708 696 z "},"":{"ha":694,"x_min":0,"x_max":0,"o":""},"!":{"ha":220,"x_min":24,"x_max":310,"o":"m 116 77 q 89 33 113 60 q 47 2 65 2 q 32 24 39 2 q 26 56 24 46 q 53 96 29 73 q 96 119 76 119 q 111 104 105 119 q 116 77 117 87 m 308 811 q 293 754 304 793 q 262 653 282 715 q 225 525 248 602 q 172 345 203 449 q 159 295 165 320 q 147 247 153 271 q 95 172 121 172 q 93 199 88 172 q 103 246 96 214 q 125 328 111 278 q 156 443 136 368 q 207 631 176 518 q 225 695 213 656 q 254 785 237 734 q 301 824 273 824 q 308 811 310 824 z "},"\"":{"ha":220,"x_min":146,"x_max":326,"o":"m 229 764 q 201 708 226 742 q 154 671 175 671 q 148 680 146 671 q 159 696 148 685 q 181 737 176 714 q 194 782 187 760 q 219 804 201 804 q 229 789 225 804 q 229 764 231 774 m 319 787 q 282 701 314 755 q 220 640 246 640 q 213 650 212 640 q 217 659 214 654 q 222 671 219 664 q 275 787 241 709 q 292 808 278 796 q 314 821 307 821 q 319 787 326 821 z "},"#":{"ha":458,"x_min":110,"x_max":550,"o":"m 301 633 q 295 605 298 621 q 286 570 292 589 q 326 574 302 571 q 383 581 350 577 q 395 616 390 601 q 403 644 399 632 l 301 633 m 550 688 q 535 667 549 680 q 514 654 523 655 l 444 647 q 434 621 439 636 q 421 583 429 605 q 464 585 441 585 q 513 586 487 586 q 527 581 527 586 q 511 560 524 571 q 490 547 498 548 q 456 545 476 546 q 408 542 435 543 q 395 500 403 525 q 375 444 387 476 q 347 422 364 422 q 351 463 342 422 q 358 499 354 481 q 368 539 363 518 q 325 534 349 536 q 272 528 300 531 q 208 422 238 422 q 205 429 204 422 q 215 460 205 428 q 225 488 220 472 q 236 523 231 503 q 139 515 172 515 q 111 521 110 515 q 134 544 113 533 q 168 555 156 555 l 170 555 q 188 558 169 555 q 247 565 206 560 l 264 631 q 165 621 174 622 q 161 625 161 621 q 272 665 164 646 q 284 708 277 682 q 303 768 292 734 q 329 787 312 787 q 332 783 333 787 q 323 732 328 761 q 310 669 317 704 q 364 676 338 673 q 413 682 389 679 l 437 783 q 455 806 441 794 q 481 817 471 817 q 486 801 488 817 q 456 686 478 755 q 543 692 523 692 q 550 688 550 692 z "},"$":{"ha":454,"x_min":63,"x_max":526,"o":"m 334 660 q 290 652 312 656 q 244 640 267 647 q 172 595 176 619 q 294 478 162 539 l 334 660 m 416 251 q 311 389 430 322 q 290 289 300 334 q 270 206 279 243 q 300 202 284 203 q 334 201 317 201 q 388 207 370 201 q 416 251 411 218 m 481 290 q 396 175 469 215 q 254 144 330 139 q 226 26 244 90 q 200 6 214 6 q 197 12 195 6 q 204 48 197 15 q 224 147 211 81 q 185 155 208 150 q 134 167 163 159 q 66 200 63 186 q 85 228 67 212 q 117 244 104 244 q 172 229 125 244 q 237 211 227 213 l 279 408 q 210 443 236 429 q 172 465 183 458 q 113 558 105 511 q 207 659 124 618 q 344 699 267 688 l 363 794 q 378 811 365 802 q 399 821 391 821 q 401 814 402 821 l 380 703 q 397 704 388 703 q 416 704 406 704 q 522 682 486 704 q 524 676 526 680 q 520 669 524 673 q 513 663 517 666 q 505 657 509 659 q 498 655 500 655 q 470 660 496 655 q 435 664 451 663 q 406 665 420 665 l 390 665 q 380 665 385 665 q 372 665 376 665 q 359 608 370 657 q 328 463 348 558 q 481 290 498 382 z "},"%":{"ha":501,"x_min":22,"x_max":618,"o":"m 399 211 q 396 206 398 208 q 391 201 394 204 q 377 195 385 195 q 366 196 374 195 q 354 197 357 197 q 304 178 326 197 q 279 131 283 159 q 279 103 276 115 q 291 81 283 90 q 311 66 299 71 q 338 61 323 61 q 396 79 368 61 q 429 125 425 96 q 416 178 435 149 q 399 211 401 203 m 420 734 q 341 616 408 669 q 211 562 275 562 q 158 585 176 562 q 147 644 141 607 q 210 743 155 691 q 310 810 258 789 q 338 817 328 817 q 357 808 358 817 q 334 786 353 795 q 321 781 329 785 q 303 773 314 778 q 205 681 214 735 q 213 635 200 654 q 252 617 226 617 q 319 637 288 617 q 357 694 349 659 q 353 738 359 709 q 349 766 349 762 q 368 793 349 777 q 398 808 387 808 q 418 777 413 808 q 420 734 422 753 m 617 807 q 616 803 616 805 q 614 800 615 801 q 558 714 591 761 q 485 609 526 667 q 387 471 420 517 q 351 421 354 425 q 253 278 297 343 q 172 161 209 214 q 137 108 159 139 q 87 36 116 77 q 33 1 60 1 q 26 12 22 1 q 33 29 26 20 q 106 137 40 41 q 298 414 172 233 q 483 681 359 503 q 515 725 496 699 q 562 786 535 751 q 606 817 587 817 q 617 807 618 817 m 494 165 q 420 57 485 108 q 298 6 355 6 q 263 13 279 6 q 238 30 248 19 q 224 57 228 41 q 223 93 220 73 q 280 186 231 136 q 369 236 329 236 q 390 229 379 236 q 401 218 401 224 q 420 234 405 222 q 452 248 440 248 q 494 165 505 226 z "},"&":{"ha":397,"x_min":50,"x_max":457,"o":"m 349 603 q 279 586 313 603 q 233 534 239 566 q 290 464 224 486 l 349 603 m 249 373 q 119 278 128 329 q 177 207 111 228 q 207 276 189 235 q 249 373 225 317 m 413 208 q 306 153 406 169 q 236 145 269 147 q 174 146 203 143 q 128 89 146 89 q 126 92 126 89 q 151 148 127 98 q 64 245 50 165 q 254 410 80 338 q 180 500 170 432 q 254 596 189 552 q 366 641 309 637 q 378 672 372 656 q 391 704 385 688 q 435 745 412 745 q 437 737 440 745 q 399 640 437 736 q 415 636 406 639 q 433 627 423 633 q 455 606 457 614 q 444 591 454 600 q 432 583 437 584 q 382 598 438 585 q 321 456 362 548 q 340 454 330 455 q 361 452 351 454 q 391 444 392 450 q 377 421 388 434 q 338 398 362 405 q 290 387 314 391 q 203 201 250 296 q 248 199 220 199 q 282 201 263 199 q 326 205 302 202 q 405 215 395 214 l 408 215 q 413 208 414 215 z "},"'":{"ha":139,"x_min":142,"x_max":241,"o":"m 239 804 q 205 730 233 775 q 149 681 176 681 q 142 688 142 681 q 174 743 142 689 q 200 785 191 770 q 212 803 209 800 q 236 819 226 819 q 239 804 241 819 z "},"(":{"ha":236,"x_min":71,"x_max":318,"o":"m 207 26 q 182 6 203 8 q 89 172 111 44 q 89 380 71 274 q 271 791 133 628 q 309 819 293 819 q 316 810 318 819 q 314 803 316 807 q 270 725 295 772 q 210 612 244 677 q 142 401 161 503 q 164 113 113 229 l 189 68 q 207 26 208 31 z "},")":{"ha":228,"x_min":49,"x_max":298,"o":"m 279 442 q 97 29 235 193 q 60 2 76 2 q 52 12 49 2 q 54 18 52 13 q 99 96 73 50 q 160 208 125 143 q 200 316 184 263 q 226 419 216 368 q 203 707 256 589 q 192 730 198 719 q 180 752 186 741 q 162 794 161 789 q 191 814 165 814 q 280 650 254 785 q 279 442 298 554 z "},"*":{"ha":426,"x_min":90,"x_max":513,"o":"m 467 450 q 450 425 465 439 q 422 412 435 412 q 317 532 408 412 q 308 487 314 513 q 292 429 301 462 q 267 408 280 408 q 267 498 251 408 q 271 516 268 503 q 279 553 273 530 q 95 422 109 422 q 92 428 90 422 q 278 583 94 437 q 185 744 180 713 q 211 764 189 762 q 302 654 220 762 l 324 783 q 342 804 326 791 q 368 817 359 817 q 366 744 378 817 q 341 634 360 706 l 396 681 q 422 707 410 694 q 449 732 435 720 q 505 771 490 771 q 511 762 513 771 q 342 603 507 732 q 467 450 469 458 z "},"+":{"ha":318,"x_min":43,"x_max":330,"o":"m 329 176 q 309 151 326 166 q 281 134 294 136 q 203 132 265 132 l 198 96 q 193 74 195 83 q 189 60 191 64 q 170 39 186 51 q 144 26 153 26 q 141 54 136 26 q 157 132 141 51 q 149 133 153 133 q 142 133 145 133 l 136 133 q 123 133 131 133 q 108 132 116 132 q 93 131 100 132 q 81 131 85 131 q 44 139 43 131 q 65 161 46 151 q 169 182 97 180 q 173 212 170 194 q 182 252 176 229 q 186 259 182 256 q 193 266 189 263 q 202 271 197 269 q 210 273 206 273 q 213 183 229 273 q 302 185 286 185 q 329 176 330 185 z "},",":{"ha":169,"x_min":-14,"x_max":156,"o":"m 146 35 q 96 -66 138 -15 q 7 -144 56 -119 q -6 -149 -1 -149 q -12 -138 -14 -149 q 18 -107 -12 -134 q 52 -77 37 -92 q 77 -48 66 -62 q 113 44 108 -5 l 113 60 q 116 70 113 64 q 123 79 119 75 q 132 87 127 84 q 141 90 137 90 q 146 35 156 90 z "},"-":{"ha":315,"x_min":41,"x_max":329,"o":"m 328 176 q 309 151 326 166 q 280 134 292 136 q 254 132 269 133 q 219 131 239 131 l 203 131 q 169 132 187 131 q 142 133 151 133 q 121 132 136 133 q 93 131 105 131 l 80 131 q 43 139 41 131 q 64 161 45 150 q 303 185 103 185 q 328 176 329 185 z "},".":{"ha":141,"x_min":20,"x_max":144,"o":"m 140 82 q 105 32 136 58 q 51 6 75 6 q 26 39 20 6 q 50 85 29 61 q 94 110 71 110 q 140 82 144 110 z "},"/":{"ha":424,"x_min":-13,"x_max":581,"o":"m 580 807 q 578 800 578 802 q 521 714 553 761 q 448 609 488 667 q 347 469 380 515 q 313 421 314 422 q 134 161 199 257 q 100 108 121 139 q 49 36 79 77 q -3 1 21 1 q -9 12 -13 1 q -3 29 -9 20 q 53 118 21 70 q 125 223 84 165 q 193 318 159 271 q 260 414 226 366 q 446 681 321 503 q 477 725 458 699 q 526 786 497 751 q 568 817 551 817 q 580 807 581 817 z "},":":{"ha":151,"x_min":20,"x_max":206,"o":"m 140 82 q 105 32 136 58 q 51 6 75 6 q 26 39 20 6 q 50 85 29 61 q 94 110 71 110 q 140 82 144 110 m 201 391 q 165 338 195 362 q 105 315 136 315 q 79 341 73 315 q 112 399 83 370 q 168 428 140 428 q 201 391 206 428 z "},";":{"ha":175,"x_min":-14,"x_max":229,"o":"m 220 377 q 192 336 216 356 q 147 315 169 315 q 118 346 113 315 q 147 399 123 370 q 198 426 172 426 q 220 377 229 426 m 146 35 q 96 -66 138 -15 q 7 -144 56 -119 q -6 -149 -1 -149 q -12 -138 -14 -149 q 18 -107 -12 -134 q 52 -77 37 -92 q 77 -48 66 -62 q 113 44 108 -5 l 113 60 q 116 70 113 64 q 123 79 119 75 q 132 87 127 84 q 141 90 137 90 q 146 35 156 90 z "},"<":{"ha":252,"x_min":41,"x_max":268,"o":"m 248 68 q 229 41 245 56 q 199 26 211 26 q 191 29 194 26 q 158 52 178 37 q 109 85 137 66 q 43 140 41 134 q 80 178 46 157 q 162 219 94 187 q 243 272 210 241 q 264 283 256 283 q 267 278 268 283 q 125 168 259 237 q 248 68 254 98 z "},"=":{"ha":279,"x_min":31,"x_max":291,"o":"m 281 139 q 242 104 277 114 q 105 85 165 85 q 33 100 31 85 q 38 107 34 102 q 46 115 41 111 q 56 122 51 119 q 64 126 60 125 q 111 129 83 127 q 177 133 138 130 q 248 143 224 140 q 274 146 273 146 q 281 139 282 146 m 290 216 q 155 172 282 172 q 47 189 45 172 q 72 211 50 206 q 139 218 94 216 l 207 218 q 221 219 212 218 q 247 221 231 220 q 283 223 270 223 q 290 216 291 223 z "},">":{"ha":245,"x_min":50,"x_max":258,"o":"m 257 167 q 167 88 254 148 q 59 29 80 29 q 54 39 50 29 q 111 90 56 54 q 147 114 129 102 q 184 138 165 126 q 67 257 64 237 q 95 279 71 279 q 180 221 98 279 q 203 208 192 214 q 224 195 214 201 q 257 167 258 174 z "},"?":{"ha":567,"x_min":28,"x_max":682,"o":"m 155 103 q 116 37 149 72 q 54 0 83 0 q 39 17 50 0 q 29 39 28 34 q 63 92 33 66 q 123 118 95 118 q 155 103 157 118 m 671 699 q 527 528 659 627 q 445 471 505 511 q 288 368 386 431 q 155 257 161 286 q 159 237 154 249 q 163 221 163 226 q 142 190 161 207 q 111 174 124 174 q 99 178 104 174 q 90 188 94 182 q 85 202 87 195 q 85 216 84 210 q 227 369 96 278 l 467 524 q 608 661 599 611 q 553 744 617 718 q 440 764 506 764 q 183 683 319 764 q 190 673 183 680 q 171 654 187 666 q 148 644 155 644 q 139 657 136 644 q 184 707 142 675 q 214 731 199 721 q 242 749 229 741 q 507 819 365 819 q 623 794 578 819 q 671 699 682 763 z "},"@":{"ha":616,"x_min":54,"x_max":701,"o":"m 685 507 q 597 345 672 424 q 436 262 517 262 q 393 286 405 262 q 306 244 340 244 q 259 287 270 244 q 258 360 251 317 q 357 534 277 464 q 450 583 414 583 q 492 506 506 583 q 471 439 486 474 q 427 389 448 390 l 426 391 q 434 420 428 400 q 438 436 437 429 q 441 449 440 444 q 413 534 456 534 q 349 480 379 534 q 318 396 327 439 q 319 339 314 368 q 352 303 327 303 q 398 331 368 303 q 444 359 428 359 q 454 338 447 359 q 484 318 461 318 q 538 338 505 318 q 623 470 606 378 q 597 616 637 552 q 475 683 553 683 q 262 578 370 683 q 141 369 161 478 q 222 178 120 242 q 444 126 307 126 q 461 127 450 126 q 486 129 471 127 q 511 131 500 130 q 529 132 522 132 q 538 124 539 132 q 372 67 527 67 q 153 128 237 67 q 77 326 54 200 q 97 397 82 361 q 134 470 111 433 q 304 650 198 570 q 524 742 425 742 q 659 667 610 742 q 685 507 701 597 z "},"A":{"ha":590,"x_min":49,"x_max":692,"o":"m 645 65 q 622 35 642 50 q 587 20 603 20 q 562 28 578 20 q 484 119 503 55 q 252 6 352 6 q 93 115 144 6 q 69 326 49 210 q 243 646 100 500 q 389 762 309 713 q 555 819 483 819 q 652 596 692 819 q 593 398 636 514 q 492 221 538 258 q 472 211 479 211 q 469 214 467 211 l 470 218 q 552 403 521 319 q 595 554 583 487 q 513 765 633 765 q 304 665 417 765 q 134 368 164 538 q 203 104 102 192 q 301 65 247 65 q 403 100 347 65 q 438 125 418 109 q 485 164 458 141 q 537 199 524 199 q 547 190 543 199 q 578 120 565 138 q 639 75 588 111 q 645 65 646 70 z "},"B":{"ha":631,"x_min":56,"x_max":685,"o":"m 669 321 q 511 98 648 199 q 256 2 382 2 q 108 64 161 2 q 73 221 56 126 q 92 291 79 254 q 127 372 106 329 q 166 443 147 408 q 203 515 185 478 q 244 598 218 544 q 295 639 267 639 q 303 629 304 639 q 267 537 298 604 q 231 470 249 503 q 195 403 212 437 q 144 264 154 323 q 176 121 128 175 q 313 67 224 67 q 491 127 404 67 q 600 282 583 191 q 547 422 614 363 q 405 486 490 471 q 380 489 395 488 q 345 493 365 490 q 339 500 338 494 q 390 551 345 530 l 509 597 q 603 668 598 635 q 552 743 611 715 q 452 765 505 765 q 279 727 375 765 q 126 625 172 685 q 117 610 123 618 q 104 589 112 601 q 75 568 92 572 l 73 570 q 100 624 77 594 q 287 765 159 708 q 508 819 403 819 q 616 791 566 819 q 665 704 674 758 q 479 543 652 621 q 623 472 570 522 q 669 321 685 411 z "},"C":{"ha":501,"x_min":46,"x_max":646,"o":"m 644 604 q 618 582 640 587 l 614 585 q 612 617 613 604 q 609 640 610 631 q 589 690 602 668 q 462 771 543 771 q 337 715 395 771 q 132 341 170 557 q 141 160 113 239 q 273 67 176 67 q 414 112 330 67 q 503 157 498 157 q 506 146 508 157 q 485 117 503 133 q 361 39 433 72 q 226 5 283 5 q 80 103 119 5 q 67 300 46 188 q 220 629 96 469 q 493 821 367 821 q 602 772 559 821 q 645 660 637 730 q 646 629 646 642 q 644 604 645 615 z "},"D":{"ha":646,"x_min":84,"x_max":728,"o":"m 699 410 q 587 187 677 283 q 510 121 552 152 q 416 62 467 90 q 222 6 304 6 q 116 180 84 6 q 135 256 121 216 q 168 346 148 297 l 239 508 q 253 540 245 523 q 270 576 260 557 q 296 593 280 589 l 298 591 l 298 589 q 259 495 295 581 q 165 223 182 313 q 262 54 136 54 q 514 162 378 54 q 637 374 614 245 q 606 588 657 490 q 455 729 554 688 q 290 757 385 757 q 239 754 268 757 q 176 745 211 751 q 113 737 123 737 q 98 745 96 737 q 207 806 106 787 q 272 814 239 811 q 340 817 305 817 q 642 688 547 817 q 699 410 728 570 z "},"E":{"ha":547,"x_min":14,"x_max":657,"o":"m 650 102 q 606 57 645 72 q 431 18 549 35 q 251 2 321 2 q 95 37 155 2 q 29 165 14 80 q 100 290 39 224 q 215 387 149 345 q 121 507 104 410 q 195 642 132 567 q 251 702 222 675 q 311 750 280 729 q 507 819 414 819 q 604 795 562 819 q 648 718 657 767 q 626 669 645 698 q 587 634 606 634 q 585 637 585 634 q 588 646 585 641 q 593 659 590 652 q 602 682 600 673 q 562 752 610 728 q 471 770 523 770 q 264 678 357 770 q 185 549 195 611 q 346 437 165 437 q 354 428 357 437 q 302 380 349 396 q 278 373 292 378 q 245 361 264 368 q 94 203 111 302 q 163 89 81 127 q 316 62 223 62 q 383 68 342 62 q 479 86 424 75 q 644 110 592 110 q 650 102 651 110 z "},"F":{"ha":506,"x_min":85,"x_max":688,"o":"m 680 714 q 547 543 667 645 q 361 404 491 497 q 503 218 530 372 q 488 165 498 192 q 287 -193 440 21 q 237 -230 260 -230 q 229 -220 228 -230 q 231 -213 230 -218 q 261 -164 232 -212 q 349 -19 290 -116 q 434 180 420 97 q 397 303 449 265 q 270 349 369 323 q 264 357 262 351 q 355 441 269 380 q 466 519 425 490 q 517 558 506 549 q 616 680 607 630 q 565 749 623 724 q 467 768 519 768 q 341 749 412 768 q 148 634 212 712 q 113 589 136 618 q 88 570 100 570 q 87 576 85 570 q 103 616 89 589 q 290 765 151 704 q 519 819 414 819 q 627 798 580 819 q 680 714 688 768 z "},"G":{"ha":597,"x_min":14,"x_max":722,"o":"m 704 578 q 675 555 690 555 q 670 560 671 555 q 631 703 668 647 q 505 770 586 770 q 251 589 372 770 q 123 290 149 439 q 142 130 105 190 q 277 62 182 62 q 418 100 343 62 q 532 193 496 137 q 554 239 534 195 q 618 287 578 287 q 623 257 629 287 q 501 -35 590 73 q 157 -206 359 -206 q 147 -199 144 -206 q 168 -170 149 -186 q 200 -150 186 -153 q 224 -147 210 -149 q 258 -143 239 -145 q 538 147 475 -105 q 395 47 476 87 q 235 2 307 2 q 58 250 14 2 q 85 356 67 303 q 132 466 104 409 q 194 572 161 524 q 265 661 227 620 q 539 821 412 821 q 675 749 625 821 q 706 593 722 681 l 704 578 z "},"H":{"ha":685,"x_min":33,"x_max":816,"o":"m 806 819 q 814 807 816 819 q 793 742 812 811 q 775 677 786 716 q 750 586 765 639 q 681 311 711 444 q 627 47 650 178 q 605 18 625 33 q 570 2 583 2 q 566 9 564 2 q 590 160 566 18 q 365 467 645 467 q 215 446 294 467 q 49 1 104 1 q 41 6 46 1 q 41 9 41 7 q 69 102 42 16 q 111 244 89 163 q 157 429 133 326 q 120 416 150 427 q 35 387 90 406 l 33 389 q 165 463 38 418 l 192 585 q 201 633 197 609 q 211 682 206 658 q 239 777 223 740 q 295 819 258 819 q 301 804 303 819 q 290 760 302 808 q 254 609 277 711 l 223 480 q 416 509 330 509 q 640 390 586 509 q 678 531 659 463 q 719 665 698 600 q 733 713 724 685 q 755 778 742 741 q 806 819 773 819 z "},"I":{"ha":130,"x_min":14,"x_max":262,"o":"m 259 803 q 234 732 259 800 q 222 694 229 718 q 205 634 214 669 q 95 116 154 456 q 75 39 85 63 q 23 -1 58 -1 q 20 33 14 -1 q 54 206 22 50 q 120 497 87 372 q 187 714 153 623 q 256 821 226 821 q 259 803 262 821 z "},"J":{"ha":562,"x_min":41,"x_max":627,"o":"m 608 373 q 493 105 578 200 q 292 5 405 5 q 41 235 144 5 q 41 242 41 239 q 62 271 44 254 q 93 287 80 287 q 131 229 98 287 q 211 120 170 160 q 347 62 273 62 q 434 90 398 62 q 550 349 514 154 q 551 709 593 592 q 452 780 527 780 q 321 760 406 780 q 280 751 294 754 q 265 748 267 748 q 262 751 262 748 q 288 773 267 765 q 495 817 401 817 q 570 796 543 817 q 624 600 621 755 q 608 373 627 485 z "},"K":{"ha":589,"x_min":22,"x_max":713,"o":"m 586 46 q 565 18 583 36 q 534 1 547 1 l 530 2 q 419 113 480 21 l 313 281 q 176 401 244 376 q 155 310 165 355 q 136 220 145 265 q 109 117 122 160 q 82 43 95 73 q 33 2 64 2 q 26 14 22 2 q 36 61 28 29 q 58 141 44 92 l 128 411 l 121 411 q 111 410 117 411 q 98 408 105 409 q 86 406 92 407 q 77 405 80 405 q 72 414 71 405 q 142 464 77 447 q 170 574 157 524 q 193 667 182 624 q 214 747 206 718 q 222 786 221 777 l 222 795 q 223 804 222 802 q 248 822 224 817 q 254 749 267 819 q 236 660 251 727 q 195 478 220 593 q 590 673 460 555 q 633 718 614 694 q 669 768 653 741 q 675 780 671 773 q 684 795 679 786 q 708 812 696 812 q 712 807 713 812 q 696 765 709 795 q 231 452 601 582 q 389 314 309 425 q 435 246 412 279 q 479 178 458 213 q 532 108 507 139 q 583 54 558 77 q 586 46 587 48 z "},"L":{"ha":467,"x_min":31,"x_max":500,"o":"m 498 58 q 479 35 494 48 q 454 20 464 22 q 427 15 443 16 q 390 13 411 14 q 357 12 373 12 q 324 12 340 12 q 254 7 281 9 q 215 6 227 6 q 77 41 116 6 q 47 180 31 83 q 76 293 54 214 q 136 496 97 372 q 237 796 213 760 q 267 819 254 819 q 269 812 269 819 q 234 693 267 800 q 191 550 209 611 q 161 444 172 488 q 123 299 137 355 q 104 220 109 244 q 247 60 75 60 q 287 62 262 60 q 345 66 311 63 q 444 72 410 72 q 498 58 500 72 z "},"M":{"ha":796,"x_min":23,"x_max":917,"o":"m 840 387 q 827 322 835 358 q 810 242 820 287 q 788 148 797 183 q 777 98 780 112 q 772 75 775 89 q 765 43 770 62 q 739 14 758 29 q 708 0 721 0 q 701 9 700 0 q 716 84 707 40 q 739 189 726 128 q 761 295 752 250 q 775 369 770 340 q 724 758 843 758 q 536 541 622 758 q 450 239 477 395 q 444 199 448 226 q 441 175 443 185 q 439 159 440 165 q 416 123 436 141 q 380 106 397 106 q 378 172 367 106 q 387 208 380 182 l 393 245 q 416 400 407 328 q 428 539 425 473 q 369 770 440 770 q 298 722 341 770 q 73 134 149 562 q 70 111 72 125 q 66 77 68 96 q 58 20 60 38 q 55 12 58 16 q 48 4 52 7 q 40 -3 45 0 q 33 -5 36 -5 q 29 0 31 -5 q 44 172 23 52 q 274 737 115 570 q 414 821 354 821 q 488 543 508 821 q 671 783 567 715 q 775 819 730 819 q 840 387 917 819 z "},"N":{"ha":598,"x_min":6,"x_max":677,"o":"m 655 403 q 503 68 613 167 q 349 5 431 5 q 315 7 328 5 q 203 355 194 34 q 218 604 206 420 q 220 642 219 619 q 222 696 221 665 q 139 416 180 585 l 74 136 q 39 22 61 88 q 9 0 24 0 q 7 1 7 0 q 14 32 6 -1 q 37 134 22 64 q 62 248 47 181 q 97 408 77 315 q 138 575 122 520 q 195 741 163 669 q 203 759 197 748 q 216 785 208 770 q 264 821 240 821 q 277 572 293 821 q 269 392 270 465 q 272 273 268 318 q 396 62 290 62 q 583 345 533 62 q 600 476 594 406 q 609 625 606 545 q 609 649 609 629 q 608 704 608 669 q 607 747 606 728 q 611 783 608 767 q 633 810 614 794 q 667 827 654 827 q 673 821 673 827 q 675 779 674 806 q 676 711 676 751 q 671 541 677 617 q 655 403 666 465 z "},"O":{"ha":597,"x_min":47,"x_max":686,"o":"m 662 444 q 547 186 635 298 q 404 59 485 109 q 231 2 313 2 q 85 88 127 2 q 66 270 47 162 q 136 475 80 343 q 155 515 142 490 q 180 532 168 532 q 184 529 183 531 q 172 499 178 517 q 155 457 165 481 q 111 315 121 374 q 127 139 93 212 q 265 54 167 54 q 469 146 374 54 q 597 398 570 245 q 575 633 621 529 q 404 755 525 755 q 274 716 340 755 q 230 687 254 705 q 177 645 206 669 q 120 606 132 606 q 110 614 109 606 q 126 637 113 623 q 277 760 191 708 q 452 819 373 819 q 637 691 581 819 q 662 444 686 583 z "},"P":{"ha":606,"x_min":15,"x_max":709,"o":"m 690 522 q 581 345 670 413 q 380 278 492 278 q 280 295 342 278 q 206 340 201 317 q 228 370 208 352 q 262 387 247 387 q 269 385 265 387 q 433 338 362 338 q 621 481 595 338 q 579 674 639 587 q 416 762 519 762 q 185 545 273 762 q 100 213 139 432 q 21 2 62 2 q 21 35 15 2 q 24 48 22 40 q 28 65 25 56 l 33 96 q 39 132 36 111 q 47 183 43 154 q 56 235 52 214 q 61 271 59 256 q 111 472 84 393 q 239 701 159 609 q 463 819 341 819 q 642 727 575 819 q 690 522 709 635 z "},"Q":{"ha":637,"x_min":41,"x_max":699,"o":"m 684 359 q 570 151 663 246 q 361 26 481 62 q 479 -104 387 -28 q 480 -111 481 -107 q 462 -134 478 -121 q 436 -149 446 -149 l 433 -146 q 301 9 334 -104 q 275 7 289 8 q 245 6 261 6 q 83 85 131 6 q 62 277 41 161 q 226 601 92 441 q 527 811 365 768 q 567 819 558 819 q 572 814 572 819 q 534 786 570 800 q 509 779 522 783 q 484 772 496 775 q 251 587 359 726 q 125 324 148 453 q 142 144 105 210 q 292 64 186 64 q 295 190 285 130 q 328 245 304 245 q 336 185 336 245 q 346 68 335 119 q 521 151 449 87 q 616 315 598 219 q 603 475 629 385 q 582 534 595 504 q 551 600 568 565 q 521 659 521 658 q 542 687 523 672 q 574 703 562 703 q 582 699 576 703 q 669 544 642 632 q 684 359 699 446 z "},"R":{"ha":610,"x_min":26,"x_max":720,"o":"m 704 616 q 551 405 680 480 q 478 375 519 387 q 385 355 437 362 q 290 341 354 353 q 382 207 334 272 l 446 124 q 495 44 496 54 q 475 17 493 33 q 446 2 458 2 q 314 153 425 2 q 208 326 203 304 q 248 368 212 345 q 388 408 300 398 q 475 422 441 415 q 529 436 510 429 q 639 576 621 471 q 600 714 653 659 q 464 765 549 765 q 211 603 318 765 q 95 228 142 500 q 82 156 87 189 q 74 92 77 122 q 69 42 71 59 q 67 22 67 24 q 57 8 65 16 q 43 0 49 0 q 41 5 41 0 q 60 279 26 83 q 87 399 73 346 q 117 494 101 452 q 244 688 163 608 q 508 819 375 819 q 660 766 604 819 q 704 616 720 708 z "},"S":{"ha":557,"x_min":3,"x_max":605,"o":"m 578 195 q 562 154 574 176 q 439 36 524 75 q 277 2 365 2 q 235 4 256 2 q 192 12 214 7 q 71 60 123 26 q 14 165 3 106 q 33 211 18 189 q 68 241 49 239 l 69 237 q 65 230 68 235 q 59 217 62 224 q 54 203 56 210 q 50 193 51 197 q 140 80 38 123 q 304 47 218 47 q 433 67 377 47 q 521 159 511 96 q 441 334 534 237 q 262 496 350 416 q 180 673 167 594 q 243 763 190 725 q 345 808 287 795 q 399 816 370 813 q 460 819 427 819 q 542 816 507 819 q 600 808 576 813 q 604 801 605 806 q 584 772 601 787 q 551 758 566 758 q 522 759 541 758 q 481 761 503 760 q 441 763 460 762 q 413 764 422 764 q 243 707 252 764 q 324 543 231 637 q 412 461 369 501 q 500 380 455 420 q 578 195 593 279 z "},"T":{"ha":519,"x_min":96,"x_max":699,"o":"m 698 812 q 650 771 693 781 q 567 764 623 764 q 513 765 549 764 q 420 768 477 766 q 410 720 415 745 q 399 665 405 694 q 350 407 376 536 q 292 147 323 279 q 282 100 289 128 q 264 33 275 72 q 243 8 258 22 q 215 -4 227 -4 q 211 5 208 -4 q 254 201 224 85 q 301 398 300 397 q 344 597 330 525 q 358 669 349 627 q 378 770 366 712 l 125 770 q 96 777 96 770 q 120 798 98 786 q 410 814 142 811 q 461 815 429 814 q 541 817 494 816 q 673 819 625 819 q 698 812 699 819 z "},"U":{"ha":621,"x_min":68,"x_max":732,"o":"m 707 590 q 471 118 653 290 q 252 7 352 7 q 88 192 115 7 q 100 491 68 316 q 118 570 104 509 q 160 741 133 632 q 164 759 161 748 q 172 783 167 769 q 197 803 182 803 q 198 779 201 803 q 189 731 195 760 q 175 663 183 702 q 161 596 167 625 q 152 547 155 567 q 140 248 121 374 q 296 57 166 57 q 366 77 324 57 q 642 564 575 183 q 649 608 646 581 q 658 671 653 635 q 667 735 663 708 q 675 779 671 762 q 696 805 676 789 q 728 821 718 821 q 732 814 732 821 q 726 718 732 774 q 707 590 720 662 z "},"V":{"ha":578,"x_min":127,"x_max":751,"o":"m 750 812 q 743 798 749 806 q 611 598 664 679 q 529 471 558 517 q 336 134 413 290 q 316 91 328 115 q 286 33 304 66 q 235 -3 258 -3 q 228 2 229 -3 q 224 38 227 5 q 213 136 220 71 q 191 331 205 216 q 155 604 176 447 q 135 749 142 701 q 128 802 127 798 q 153 819 131 811 l 155 817 q 200 637 176 768 q 223 486 203 617 q 278 113 242 355 q 565 602 389 341 q 620 682 587 635 q 698 791 652 730 q 742 821 722 821 q 750 812 751 821 z "},"W":{"ha":800,"x_min":116,"x_max":962,"o":"m 962 812 q 942 742 958 789 q 899 621 926 694 q 784 342 840 465 q 675 126 728 219 q 568 0 602 0 q 559 7 562 0 q 538 175 559 8 q 498 591 505 434 q 415 395 458 492 q 324 197 372 298 q 301 153 315 179 q 271 92 288 127 q 260 69 267 82 q 244 39 254 56 q 193 0 219 0 q 183 7 186 0 q 116 606 119 177 q 119 720 117 672 q 127 798 122 767 q 131 803 127 800 q 138 810 134 807 q 146 816 142 814 q 153 819 151 819 q 156 814 156 819 q 161 759 159 806 q 165 625 163 712 q 188 338 171 466 q 231 106 204 210 q 352 368 293 235 q 470 645 411 501 q 480 669 474 654 q 494 703 486 684 q 545 743 515 743 q 551 736 549 743 q 559 651 554 701 q 570 532 564 600 q 589 353 578 459 q 618 103 601 247 q 735 325 675 199 q 858 611 795 451 q 933 800 888 697 q 957 817 945 817 q 962 812 962 817 z "},"X":{"ha":578,"x_min":-5,"x_max":714,"o":"m 712 801 q 699 780 711 793 q 610 696 667 745 q 547 642 569 661 q 519 617 524 622 q 438 541 475 576 q 367 470 400 505 l 463 237 q 500 157 479 205 q 547 41 521 109 q 548 32 549 37 q 530 13 547 26 q 503 0 515 0 q 408 191 482 0 q 367 308 387 251 q 324 425 346 365 q 166 240 235 330 q 46 61 97 150 q 28 26 39 45 q -3 1 14 4 l -5 2 l -4 6 q 15 54 -3 12 q 314 452 96 219 q 176 758 248 625 q 169 772 173 764 q 159 791 164 781 l 156 796 q 182 819 160 812 l 185 817 q 271 675 229 754 q 357 498 314 597 q 439 579 395 536 q 534 671 483 623 q 705 811 684 811 q 712 801 714 811 z "},"Y":{"ha":534,"x_min":94,"x_max":660,"o":"m 657 742 q 646 703 656 731 q 619 627 637 674 q 578 524 604 585 q 519 380 553 463 q 457 234 482 295 q 418 134 433 174 q 385 44 409 106 q 331 0 366 0 q 323 13 321 0 q 339 71 326 31 q 376 172 353 110 q 443 330 404 235 q 536 554 483 425 q 237 338 373 338 q 116 427 143 338 q 113 598 94 496 q 134 686 120 642 q 167 775 147 730 q 173 787 170 781 q 182 803 177 794 q 211 824 193 821 l 214 821 l 214 819 q 195 764 213 819 q 162 646 171 696 q 164 481 146 549 q 277 391 189 391 q 566 661 406 391 q 577 683 570 670 q 594 713 585 695 q 649 755 621 755 q 657 742 660 755 z "},"Z":{"ha":562,"x_min":0,"x_max":695,"o":"m 678 720 q 547 549 665 650 q 484 497 536 539 q 339 382 433 456 q 82 120 94 186 q 206 64 73 64 q 366 76 259 64 q 460 86 420 83 q 526 89 500 89 q 549 81 551 89 q 500 36 543 47 l 457 30 l 344 16 q 161 0 210 0 q 14 81 0 0 q 224 330 29 160 q 363 440 294 385 q 503 551 433 496 q 590 632 534 576 q 616 685 611 658 q 416 773 632 773 q 402 773 412 773 q 381 772 393 772 q 357 771 370 772 q 335 771 345 771 l 315 771 q 172 796 168 771 q 185 810 174 802 q 203 819 196 819 q 229 818 214 819 q 265 817 245 818 l 329 817 q 361 818 342 817 q 406 819 380 818 q 483 821 457 821 q 678 720 695 821 z "},"[":{"ha":214,"x_min":18,"x_max":330,"o":"m 199 67 q 138 18 195 38 q 57 0 90 0 q 24 3 31 0 q 18 16 18 7 q 22 45 19 27 q 29 88 25 62 q 53 211 38 137 q 88 384 67 284 q 124 557 110 484 q 148 680 139 630 q 168 771 159 743 q 211 806 178 798 q 265 816 244 812 q 295 819 286 819 q 328 807 330 819 q 287 783 325 791 q 262 779 275 781 q 239 775 250 777 l 216 770 q 213 744 215 759 q 207 709 210 729 q 189 617 205 700 q 140 376 173 534 q 116 256 129 323 q 89 102 104 188 q 85 78 86 86 q 83 68 83 70 q 106 58 85 58 q 151 66 123 58 q 191 75 178 75 q 199 67 200 75 z "},"\\":{"ha":424,"x_min":128,"x_max":441,"o":"m 440 12 q 428 1 437 1 q 387 36 401 1 l 347 161 q 308 278 330 214 q 259 421 286 343 q 203 577 235 484 q 130 800 170 671 q 130 807 128 803 q 144 817 130 817 q 176 786 161 817 q 193 748 182 774 q 219 681 203 722 q 309 414 248 592 q 364 255 332 351 q 437 29 396 159 q 440 19 439 24 q 440 12 441 15 z "},"]":{"ha":218,"x_min":28,"x_max":340,"o":"m 323 694 q 300 579 315 648 q 267 416 286 510 q 233 254 247 323 q 211 139 219 186 q 200 84 205 106 q 190 49 195 62 q 148 13 180 20 q 64 0 84 0 q 30 12 28 0 q 69 35 33 26 q 120 43 94 39 l 141 49 q 145 74 142 59 q 152 109 149 89 q 170 201 153 118 q 218 442 186 284 q 241 558 229 495 q 267 699 254 622 q 272 756 277 755 q 251 758 267 758 q 206 750 235 758 q 167 742 176 742 q 159 751 157 742 q 220 801 164 780 q 300 819 269 819 q 336 814 329 819 q 338 801 340 811 q 330 738 333 764 q 323 694 326 712 z "},"^":{"ha":334,"x_min":121,"x_max":416,"o":"m 412 598 q 391 570 411 587 q 361 553 372 553 q 354 557 355 553 q 338 662 341 581 q 306 760 336 734 q 229 678 273 733 q 127 570 145 570 q 121 574 121 570 q 128 583 122 577 q 228 715 161 627 q 344 814 309 814 q 399 724 383 814 q 412 598 416 628 z "},"_":{"ha":555,"x_min":-48,"x_max":514,"o":"m -48 -278 l -41 -237 l 514 -237 l 507 -278 l -48 -278 z "},"`":{"ha":234,"x_min":213,"x_max":349,"o":"m 346 890 q 334 880 344 880 q 258 950 321 880 q 216 1016 213 1000 q 229 1027 217 1027 q 283 981 245 1027 q 346 890 349 904 z "},"a":{"ha":315,"x_min":28,"x_max":338,"o":"m 330 176 q 251 52 317 103 q 111 1 184 1 q 54 20 74 1 q 33 75 28 39 q 93 162 43 124 q 195 200 145 200 q 262 165 245 200 q 264 159 265 162 q 245 131 262 146 q 215 116 228 116 l 190 130 q 144 144 165 144 q 97 113 103 144 q 163 58 88 58 q 267 140 254 58 q 249 218 275 185 q 178 252 223 252 q 129 238 157 252 q 96 224 98 224 q 90 235 88 224 q 151 286 95 262 q 228 307 198 307 q 309 268 279 307 q 330 176 338 229 z "},"b":{"ha":319,"x_min":36,"x_max":360,"o":"m 341 200 q 272 69 329 132 q 144 1 208 1 q 54 65 75 1 q 50 189 36 113 q 125 444 66 290 q 186 611 164 549 q 215 694 209 673 q 226 739 219 713 q 244 798 233 765 q 271 819 255 819 q 270 765 279 819 q 195 526 262 728 q 111 231 127 326 q 189 60 81 60 q 247 95 221 60 q 273 160 267 124 q 192 249 290 249 q 182 258 180 249 q 215 296 186 281 q 267 308 242 308 q 341 200 360 308 z "},"c":{"ha":290,"x_min":30,"x_max":323,"o":"m 317 228 q 288 190 310 190 q 267 226 287 190 q 206 262 247 262 q 103 180 116 262 q 119 102 95 138 q 185 62 144 62 q 239 82 212 62 q 274 102 267 102 q 281 92 283 102 q 269 72 280 85 q 133 2 201 2 q 56 46 83 2 q 39 139 30 87 q 110 254 51 201 q 229 308 170 308 q 295 286 267 308 q 317 228 323 264 z "},"d":{"ha":294,"x_min":30,"x_max":382,"o":"m 352 395 q 113 1 282 1 q 47 35 66 1 q 38 111 30 66 q 100 242 50 178 q 218 314 155 314 q 265 294 268 314 q 245 262 262 282 q 216 243 227 243 q 208 244 213 243 q 196 248 202 245 q 185 251 191 250 q 176 252 180 252 q 95 154 112 252 q 94 120 92 136 q 104 93 96 104 q 125 74 112 81 q 156 67 138 67 q 292 341 243 67 q 324 667 321 503 q 326 736 325 710 q 328 770 326 762 q 345 803 331 785 q 374 822 359 822 q 382 780 382 822 q 373 568 380 663 q 352 395 366 473 z "},"e":{"ha":300,"x_min":13,"x_max":315,"o":"m 252 215 q 251 229 253 222 q 243 243 248 237 q 232 253 239 249 q 219 257 226 257 q 139 207 184 257 q 88 120 96 157 q 88 102 87 110 q 134 126 111 114 q 180 152 157 139 q 252 215 248 189 m 314 79 q 223 21 307 41 q 110 5 162 5 q 26 83 13 5 q 116 226 37 145 q 260 310 199 310 q 298 292 283 310 q 308 250 313 274 q 221 148 298 199 q 96 82 186 126 q 156 61 111 61 q 198 65 171 61 q 265 79 224 70 q 308 88 304 88 q 314 79 315 88 z "},"f":{"ha":307,"x_min":-27,"x_max":357,"o":"m 357 222 q 311 180 352 197 q 267 163 294 173 q 205 138 240 153 q 234 95 220 116 q 264 54 249 75 q 285 -48 293 2 q 219 -170 274 -110 q 100 -233 160 -233 q 15 8 -27 -233 q 139 388 37 123 q 207 576 176 484 q 262 762 237 668 q 266 780 263 770 q 273 801 269 789 q 303 824 282 819 l 304 819 q 296 764 304 802 q 156 321 275 641 q 79 62 94 149 q 72 -81 64 -15 q 147 -174 85 -174 q 215 -91 199 -174 q 174 31 224 -41 q 126 117 124 103 q 226 191 131 147 q 351 231 316 231 q 357 222 357 231 z "},"g":{"ha":345,"x_min":-26,"x_max":366,"o":"m 355 165 q 198 -21 338 64 q 250 -107 260 -49 q 169 -199 239 -165 q 49 -229 113 -229 q -22 -212 -26 -229 q 0 -182 -21 -199 q 35 -166 21 -166 q 46 -167 39 -166 q 61 -168 54 -168 q 75 -169 68 -168 q 85 -170 81 -170 q 182 -149 134 -170 l 183 -143 q 142 -82 190 -102 q 95 -60 94 -63 q 136 -14 98 -37 q 184 13 160 -1 q 233 41 208 26 q 293 130 283 77 q 271 214 301 178 q 192 251 241 251 q 100 180 113 251 q 115 108 95 141 q 174 75 136 75 q 234 100 203 75 q 273 126 268 126 q 278 120 279 126 q 274 113 278 118 q 127 29 207 29 q 59 67 83 29 q 44 147 37 104 q 115 258 55 210 q 237 306 176 306 q 332 266 298 306 q 355 165 366 226 z "},"h":{"ha":403,"x_min":9,"x_max":528,"o":"m 527 110 q 419 35 521 77 q 288 -4 328 -4 q 222 93 205 -4 q 243 166 227 118 q 255 208 250 190 q 262 239 260 227 q 257 250 264 250 q 130 126 212 250 q 18 2 50 2 q 12 14 9 2 q 62 221 26 100 q 92 323 77 272 q 123 426 107 374 q 160 569 144 502 q 186 696 176 636 q 197 766 195 747 l 197 800 q 207 814 198 806 q 222 822 215 822 q 227 819 227 822 q 224 682 239 766 q 198 559 215 629 q 156 399 181 490 q 110 228 127 298 q 83 118 92 159 q 303 307 205 307 q 328 280 332 307 q 320 249 325 268 q 308 205 315 231 q 296 162 300 180 q 288 132 291 144 q 336 56 274 56 q 444 87 372 56 q 521 119 515 119 q 527 110 528 119 z "},"i":{"ha":106,"x_min":18,"x_max":214,"o":"m 211 458 q 191 420 207 439 q 156 401 176 401 q 130 422 126 401 q 155 458 133 439 q 195 478 179 478 q 211 458 214 478 m 140 306 q 128 248 142 292 l 105 178 q 68 36 94 140 q 49 14 67 27 q 23 0 31 0 q 18 6 18 0 q 27 66 18 30 q 56 153 37 103 q 78 211 64 176 q 113 290 92 245 q 136 309 123 309 q 140 306 139 309 z "},"j":{"ha":236,"x_min":-90,"x_max":309,"o":"m 308 460 q 286 424 306 446 q 250 404 267 404 q 227 425 223 404 q 252 463 229 442 q 292 484 273 484 q 302 474 294 484 q 308 460 309 465 m 257 220 q 224 85 244 150 q 177 -40 204 21 q -4 -219 94 -219 q -87 -138 -60 -219 q -88 -132 -90 -136 q -70 -104 -87 -121 q -41 -88 -53 -88 q -9 -123 -37 -88 q 43 -159 19 -159 q 142 -5 86 -159 q 199 189 185 110 q 201 204 201 195 q 202 226 201 214 q 203 248 203 239 q 205 264 203 257 q 220 294 207 278 q 248 310 233 310 q 257 220 272 310 z "},"k":{"ha":319,"x_min":13,"x_max":340,"o":"m 332 36 q 311 7 330 21 q 278 -6 292 -6 q 175 15 223 -6 q 119 92 120 44 q 21 -5 45 -5 q 15 9 13 -5 q 84 294 32 105 q 127 460 110 390 q 153 578 144 531 q 169 713 161 633 q 173 764 172 746 q 174 783 174 781 q 190 801 175 788 q 214 814 205 814 q 221 811 220 814 q 203 581 232 757 q 181 480 195 538 q 149 349 168 422 q 113 206 127 263 q 93 117 99 149 q 314 307 195 255 q 331 311 323 311 q 339 303 340 311 q 265 239 336 281 q 187 153 195 198 q 231 75 178 100 q 279 60 255 68 q 328 44 303 52 q 332 36 334 41 z "},"l":{"ha":92,"x_min":21,"x_max":218,"o":"m 198 688 q 100 222 172 543 q 79 127 91 178 q 51 20 66 77 q 26 0 39 0 q 21 2 22 0 q 23 32 21 13 q 30 81 25 52 q 43 149 35 111 q 61 234 51 187 q 83 339 75 302 q 94 388 91 377 l 108 462 q 137 613 121 534 q 168 785 152 693 q 186 807 169 794 q 214 821 206 821 q 218 814 218 821 q 212 768 216 800 q 198 688 207 736 z "},"m":{"ha":393,"x_min":-13,"x_max":397,"o":"m 389 62 q 347 -3 379 12 q 334 -6 338 -6 q 330 49 326 -6 q 310 223 342 173 q 267 147 288 201 q 250 105 258 126 q 232 62 241 84 q 180 20 214 20 q 180 77 170 20 q 165 257 212 257 q 82 164 132 257 q 30 39 38 83 q 31 24 29 30 q 33 16 33 18 q 30 11 33 14 q 23 4 27 7 q 15 -1 19 1 q 8 -3 11 -3 q -5 39 -13 -3 q 72 203 7 111 q 208 307 146 307 q 252 200 258 307 q 300 254 270 226 q 357 290 338 290 q 396 192 393 290 q 396 125 397 157 q 389 62 394 93 z "},"n":{"ha":241,"x_min":0,"x_max":273,"o":"m 269 210 q 211 44 254 133 q 161 5 192 5 q 154 15 153 5 q 169 60 156 28 q 194 130 184 101 q 206 175 203 158 q 207 184 207 180 q 208 194 208 189 q 208 205 208 199 q 207 218 208 211 q 195 251 205 251 q 100 155 158 251 q 39 23 46 66 q 36 17 39 21 q 29 9 33 13 q 21 3 25 5 q 14 0 16 0 q 7 37 0 0 q 69 167 16 92 q 172 275 120 239 q 241 308 216 308 q 271 270 265 308 q 269 210 273 241 z "},"o":{"ha":315,"x_min":14,"x_max":339,"o":"m 262 138 q 241 214 269 179 q 174 250 213 250 q 88 140 107 250 q 87 108 85 123 q 96 82 89 93 q 116 64 104 71 q 144 58 127 58 q 218 80 180 58 q 262 138 257 103 m 330 180 q 243 57 318 113 q 102 2 169 2 q 31 97 14 2 q 100 234 44 168 q 229 308 161 308 q 308 267 276 308 q 330 180 339 229 z "},"p":{"ha":273,"x_min":-11,"x_max":300,"o":"m 231 131 q 218 206 236 167 q 167 251 199 251 q 113 184 141 251 q 96 138 103 160 q 83 95 88 115 q 149 50 115 50 q 231 131 216 50 m 292 172 q 227 60 281 115 q 119 6 173 6 q 74 21 93 6 q 74 -116 73 -1 q 72 -184 74 -170 q 51 -212 69 -197 q 22 -229 33 -229 q 15 -222 16 -229 q 14 37 -11 -103 q 77 205 29 125 q 213 307 138 307 q 278 259 255 307 q 292 172 300 215 z "},"q":{"ha":290,"x_min":26,"x_max":330,"o":"m 302 148 q 279 57 296 113 q 237 -79 263 1 q 225 -118 233 -95 q 208 -173 218 -142 q 185 -200 205 -184 q 155 -216 165 -216 q 151 -186 144 -216 q 157 -158 152 -177 q 172 -111 163 -140 q 239 132 227 54 q 198 251 260 251 q 129 222 157 251 q 94 153 100 193 q 172 43 75 43 q 180 41 180 43 q 154 14 177 24 q 110 6 135 6 q 45 43 64 6 q 36 124 26 73 q 115 250 47 191 q 249 310 180 310 q 302 148 330 310 z "},"r":{"ha":298,"x_min":6,"x_max":351,"o":"m 344 215 q 323 187 341 203 q 293 172 303 172 q 268 210 290 172 q 208 248 245 248 q 113 184 146 248 q 93 125 103 153 q 73 66 83 96 q 14 2 50 2 q 8 13 6 2 q 69 237 13 35 q 108 303 88 303 q 111 234 122 303 q 262 307 188 307 q 325 280 299 307 q 344 215 351 252 z "},"s":{"ha":285,"x_min":12,"x_max":351,"o":"m 349 282 q 345 275 348 279 q 337 269 341 272 q 328 264 332 266 q 319 262 323 262 l 303 262 q 269 263 288 262 q 243 264 251 264 q 144 235 182 264 q 220 182 144 233 q 257 104 265 149 q 187 26 248 54 q 83 2 137 2 q 14 15 12 2 q 33 41 16 27 q 61 58 47 56 q 131 60 66 60 q 195 71 193 60 q 142 150 203 111 q 83 203 80 189 q 167 279 90 244 q 281 308 233 308 q 321 302 298 308 q 349 282 351 294 z "},"t":{"ha":221,"x_min":45,"x_max":317,"o":"m 316 300 q 299 278 314 291 q 275 264 285 265 l 254 264 q 240 264 249 264 q 219 265 231 264 l 184 265 q 169 201 176 233 q 154 139 161 170 q 119 22 132 44 q 90 0 105 0 q 93 54 83 0 q 107 114 94 62 q 142 264 119 165 q 75 259 98 261 q 50 257 52 258 q 46 262 45 257 q 152 303 51 287 q 219 637 185 444 q 237 659 220 646 q 265 671 254 671 q 262 602 273 671 q 234 468 250 540 q 195 308 217 395 q 244 310 212 310 q 316 300 317 310 z "},"u":{"ha":367,"x_min":26,"x_max":372,"o":"m 370 68 q 349 39 368 56 q 316 22 330 22 q 271 134 288 22 q 195 49 243 86 q 96 2 140 2 q 41 41 57 2 q 35 117 26 75 q 82 226 41 155 q 159 307 131 307 q 163 301 165 307 q 131 238 162 293 q 94 153 100 185 q 100 93 89 120 q 144 60 113 60 q 229 152 191 60 q 302 272 272 256 q 319 278 313 278 q 328 271 326 278 q 334 241 331 259 q 341 200 338 224 q 372 72 352 140 l 370 68 z "},"v":{"ha":250,"x_min":50,"x_max":347,"o":"m 345 286 q 331 265 342 277 q 283 211 307 238 q 236 157 260 184 q 194 102 214 132 q 155 37 174 72 q 132 14 149 28 q 105 0 114 0 q 98 7 100 0 q 91 67 96 31 q 81 152 87 103 q 73 195 77 173 q 62 241 68 217 q 51 290 50 281 q 61 301 52 295 q 75 308 69 308 q 80 307 75 308 q 127 216 109 295 q 146 104 138 160 q 237 212 174 144 q 337 294 315 294 q 345 286 347 294 z "},"w":{"ha":435,"x_min":15,"x_max":488,"o":"m 477 252 q 401 108 465 180 q 264 29 333 29 q 192 97 208 29 q 68 5 115 5 q 37 131 15 5 q 49 183 42 157 q 65 235 56 209 q 117 313 92 313 q 118 307 119 313 q 104 253 115 291 q 95 221 98 235 q 90 199 92 208 q 108 54 64 54 q 166 115 114 54 q 242 176 218 176 q 264 130 248 176 q 314 85 280 85 q 390 154 357 85 q 410 204 401 178 q 424 262 418 231 q 443 291 426 276 q 475 307 460 307 q 477 252 488 307 z "},"x":{"ha":298,"x_min":-19,"x_max":347,"o":"m 346 300 q 323 270 342 286 q 262 221 292 246 q 201 167 232 195 q 277 37 280 57 q 258 13 274 27 q 231 0 243 0 q 152 119 220 0 q -3 7 31 7 q -18 15 -19 7 q -15 22 -18 18 q -7 29 -12 26 q 1 34 -3 32 q 8 36 5 36 q 139 144 56 63 q 100 210 101 205 q 85 285 80 254 q 95 299 85 290 q 110 308 104 308 q 127 285 117 308 q 156 235 142 259 q 186 189 171 212 q 341 307 309 307 q 346 300 347 307 z "},"y":{"ha":321,"x_min":14,"x_max":348,"o":"m 331 104 q 298 -24 321 50 q 239 -194 275 -97 q 231 -208 237 -201 q 219 -220 226 -215 q 203 -230 212 -226 q 189 -233 195 -233 q 185 -214 182 -233 q 200 -155 190 -190 q 227 -73 211 -120 q 252 8 242 -26 q 267 67 262 43 q 272 113 270 91 q 272 154 273 134 q 103 2 178 2 q 47 192 14 2 q 105 308 62 278 q 116 311 109 311 q 113 298 125 311 q 96 229 106 289 q 92 123 85 172 q 141 54 99 54 q 270 228 178 54 q 292 252 274 239 q 319 267 310 267 q 329 259 328 267 q 331 104 348 205 z "},"z":{"ha":304,"x_min":18,"x_max":346,"o":"m 337 257 q 160 79 326 195 q 219 88 197 88 q 292 26 302 88 q 169 -127 281 -39 q 136 -144 147 -144 q 130 -132 127 -144 q 176 -80 131 -124 q 226 -9 221 -37 q 172 29 233 29 q 54 1 138 29 q 48 0 50 1 q 44 0 45 0 q 37 8 36 0 q 157 116 43 40 q 277 223 271 193 q 213 258 281 258 q 180 256 200 258 q 135 250 161 254 q 90 243 110 245 q 57 241 71 241 q 24 248 30 241 q 18 257 18 255 q 68 280 22 280 q 165 293 102 280 q 262 307 235 307 q 337 257 346 307 z "},"{":{"ha":419,"x_min":77,"x_max":528,"o":"m 401 41 q 380 13 399 28 q 347 -1 360 -1 q 160 134 137 -1 q 222 243 170 191 q 319 326 260 269 q 262 341 298 341 q 234 339 253 341 q 193 334 214 336 q 153 329 172 331 q 125 326 134 326 q 79 340 77 326 q 119 385 83 365 q 203 406 147 401 q 286 424 259 412 q 296 444 293 433 q 263 505 298 460 q 239 614 228 551 q 340 763 254 703 q 513 819 423 819 q 527 814 528 819 q 515 800 526 809 q 499 789 505 791 l 460 786 q 355 747 399 778 q 295 654 304 711 q 325 551 285 596 q 360 481 365 506 q 308 403 353 442 q 357 396 333 403 q 390 369 393 385 q 309 276 385 339 q 228 175 234 212 q 227 147 226 163 q 293 74 235 96 l 397 49 q 401 41 402 48 z "},"|":{"ha":106,"x_min":29,"x_max":226,"o":"m 206 688 q 181 559 199 645 q 136 340 164 473 q 59 20 72 37 q 33 0 45 2 l 29 2 q 31 28 30 14 q 36 61 33 43 q 77 270 50 143 q 104 401 94 350 q 119 478 115 453 q 146 622 132 546 q 176 785 160 698 q 195 807 177 794 q 222 821 214 821 q 226 814 226 821 q 222 782 224 802 q 214 734 219 762 l 206 688 z "},"}":{"ha":414,"x_min":29,"x_max":481,"o":"m 479 477 q 436 432 475 453 q 351 410 406 416 q 303 403 323 408 q 270 393 283 399 q 259 373 262 383 q 292 311 256 356 q 318 203 329 264 q 215 54 302 115 q 44 -1 135 -1 q 29 1 29 -1 q 56 28 32 22 q 72 30 62 28 q 95 33 81 31 q 262 162 243 54 q 232 266 273 221 q 195 336 191 311 q 248 416 203 374 l 241 416 q 195 422 217 416 q 164 447 162 431 q 170 457 164 449 q 201 497 179 473 q 259 552 222 521 q 329 641 321 606 q 328 669 331 652 q 262 742 319 720 l 159 768 q 153 775 151 770 q 175 804 155 788 q 208 819 195 819 q 396 682 420 819 q 332 574 385 624 q 237 491 296 548 q 292 475 256 475 q 361 483 315 475 q 432 492 408 492 q 479 477 481 492 z "},"~":{"ha":321,"x_min":36,"x_max":332,"o":"m 331 183 q 282 110 326 149 q 206 71 241 71 q 151 103 180 71 q 103 136 121 136 q 73 109 94 136 q 39 81 52 81 q 37 88 36 81 l 47 104 q 149 178 93 178 q 205 151 174 178 q 252 125 236 125 q 268 144 260 134 q 283 165 275 155 q 323 190 306 190 q 331 183 332 190 z "},"Ä":{"ha":590,"x_min":49,"x_max":692,"o":"m 645 65 q 622 35 642 50 q 587 20 603 20 q 562 28 578 20 q 484 119 503 55 q 252 6 352 6 q 93 115 144 6 q 69 326 49 210 q 243 646 100 500 q 389 762 309 713 q 555 819 483 819 q 652 596 692 819 q 593 398 636 514 q 492 221 538 258 q 472 211 479 211 q 469 214 467 211 l 470 218 q 552 403 521 319 q 595 554 583 487 q 513 765 633 765 q 304 665 417 765 q 134 368 164 538 q 203 104 102 192 q 301 65 247 65 q 403 100 347 65 q 438 125 418 109 q 485 164 458 141 q 537 199 524 199 q 547 190 543 199 q 578 120 565 138 q 639 75 588 111 q 645 65 646 70 m 473 999 q 444 970 471 986 q 404 954 418 954 q 397 977 393 954 q 420 1006 399 992 q 457 1021 441 1021 q 473 999 479 1021 m 602 1001 q 577 969 599 984 q 538 954 555 954 q 524 964 521 954 q 543 1004 527 982 q 575 1025 558 1025 q 602 1001 605 1025 z "},"Å":{"ha":590,"x_min":49,"x_max":692,"o":"m 645 65 q 622 35 642 50 q 587 20 603 20 q 562 28 578 20 q 484 119 503 55 q 252 6 352 6 q 93 115 144 6 q 69 326 49 210 q 243 646 100 500 q 389 762 309 713 q 555 819 483 819 q 652 596 692 819 q 593 398 636 514 q 492 221 538 258 q 472 211 479 211 q 469 214 467 211 l 470 218 q 552 403 521 319 q 595 554 583 487 q 513 765 633 765 q 304 665 417 765 q 134 368 164 538 q 203 104 102 192 q 301 65 247 65 q 403 100 347 65 q 438 125 418 109 q 485 164 458 141 q 537 199 524 199 q 547 190 543 199 q 578 120 565 138 q 639 75 588 111 q 645 65 646 70 m 603 988 q 591 1031 606 1013 q 552 1055 575 1050 q 529 1019 532 1036 q 536 985 526 1000 q 566 970 547 970 q 603 988 600 970 m 660 1027 q 611 953 652 984 q 528 922 572 922 q 480 984 469 922 q 530 1060 488 1030 q 522 1067 519 1058 q 547 1099 525 1087 q 590 1111 568 1111 q 646 1086 625 1111 q 660 1027 667 1061 z "},"É":{"ha":547,"x_min":14,"x_max":657,"o":"m 650 102 q 606 57 645 72 q 431 18 549 35 q 251 2 321 2 q 95 37 155 2 q 29 165 14 80 q 100 290 39 224 q 215 387 149 345 q 121 507 104 410 q 195 642 132 567 q 251 702 222 675 q 311 750 280 729 q 507 819 414 819 q 604 795 562 819 q 648 718 657 767 q 626 669 645 698 q 587 634 606 634 q 585 637 585 634 q 588 646 585 641 q 593 659 590 652 q 602 682 600 673 q 562 752 610 728 q 471 770 523 770 q 264 678 357 770 q 185 549 195 611 q 346 437 165 437 q 354 428 357 437 q 302 380 349 396 q 278 373 292 378 q 245 361 264 368 q 94 203 111 302 q 163 89 81 127 q 316 62 223 62 q 383 68 342 62 q 479 86 424 75 q 644 110 592 110 q 650 102 651 110 m 618 1016 q 555 950 615 1000 q 454 880 464 880 q 445 890 441 880 q 538 981 447 904 q 609 1027 593 1027 q 618 1016 619 1027 z "},"Ñ":{"ha":598,"x_min":6,"x_max":677,"o":"m 655 403 q 503 68 613 167 q 349 5 431 5 q 315 7 328 5 q 203 355 194 34 q 218 604 206 420 q 220 642 219 619 q 222 696 221 665 q 139 416 180 585 l 74 136 q 39 22 61 88 q 9 0 24 0 q 7 1 7 0 q 14 32 6 -1 q 37 134 22 64 q 62 248 47 181 q 97 408 77 315 q 138 575 122 520 q 195 741 163 669 q 203 759 197 748 q 216 785 208 770 q 264 821 240 821 q 277 572 293 821 q 269 392 270 465 q 272 273 268 318 q 396 62 290 62 q 583 345 533 62 q 600 476 594 406 q 609 625 606 545 q 609 649 609 629 q 608 704 608 669 q 607 747 606 728 q 611 783 608 767 q 633 810 614 794 q 667 827 654 827 q 673 821 673 827 q 675 779 674 806 q 676 711 676 751 q 671 541 677 617 q 655 403 666 465 m 618 1030 q 570 957 612 996 q 493 918 528 918 q 437 951 467 918 q 390 984 409 984 q 360 956 382 984 q 326 928 338 928 q 324 935 323 928 l 334 951 q 437 1025 380 1025 q 491 999 460 1025 q 540 972 522 972 q 555 992 547 982 q 570 1013 562 1002 q 609 1037 593 1037 q 618 1030 619 1037 z "},"Ö":{"ha":597,"x_min":47,"x_max":686,"o":"m 662 444 q 547 186 635 298 q 404 59 485 109 q 231 2 313 2 q 85 88 127 2 q 66 270 47 162 q 136 475 80 343 q 155 515 142 490 q 180 532 168 532 q 184 529 183 531 q 172 499 178 517 q 155 457 165 481 q 111 315 121 374 q 127 139 93 212 q 265 54 167 54 q 469 146 374 54 q 597 398 570 245 q 575 633 621 529 q 404 755 525 755 q 274 716 340 755 q 230 687 254 705 q 177 645 206 669 q 120 606 132 606 q 110 614 109 606 q 126 637 113 623 q 277 760 191 708 q 452 819 373 819 q 637 691 581 819 q 662 444 686 583 m 459 999 q 430 970 457 986 q 390 954 404 954 q 383 977 378 954 q 406 1006 385 992 q 443 1021 427 1021 q 459 999 465 1021 m 588 1001 q 563 969 585 984 q 524 954 541 954 q 509 964 507 954 q 528 1004 513 982 q 561 1025 544 1025 q 588 1001 591 1025 z "},"Ü":{"ha":621,"x_min":68,"x_max":732,"o":"m 707 590 q 471 118 653 290 q 252 7 352 7 q 88 192 115 7 q 100 491 68 316 q 118 570 104 509 q 160 741 133 632 q 164 759 161 748 q 172 783 167 769 q 197 803 182 803 q 198 779 201 803 q 189 731 195 760 q 175 663 183 702 q 161 596 167 625 q 152 547 155 567 q 140 248 121 374 q 296 57 166 57 q 366 77 324 57 q 642 564 575 183 q 649 608 646 581 q 658 671 653 635 q 667 735 663 708 q 675 779 671 762 q 696 805 676 789 q 728 821 718 821 q 732 814 732 821 q 726 718 732 774 q 707 590 720 662 m 459 999 q 430 970 457 986 q 390 954 404 954 q 383 977 378 954 q 406 1006 385 992 q 443 1021 427 1021 q 459 999 465 1021 m 588 1001 q 563 969 585 984 q 524 954 541 954 q 509 964 507 954 q 528 1004 513 982 q 561 1025 544 1025 q 588 1001 591 1025 z "},"á":{"ha":321,"x_min":28,"x_max":366,"o":"m 330 176 q 251 52 317 103 q 111 1 184 1 q 54 20 74 1 q 33 75 28 39 q 93 162 43 124 q 195 200 145 200 q 262 165 245 200 q 264 159 265 162 q 245 131 262 146 q 215 116 228 116 l 190 130 q 144 144 165 144 q 97 113 103 144 q 163 58 88 58 q 267 140 254 58 q 249 218 275 185 q 178 252 223 252 q 129 238 157 252 q 96 224 98 224 q 90 235 88 224 q 151 286 95 262 q 228 307 198 307 q 309 268 279 307 q 330 176 338 229 m 365 517 q 301 452 361 502 q 200 381 210 381 q 191 391 188 381 q 285 482 193 406 q 355 528 339 528 q 365 517 366 528 z "},"à":{"ha":321,"x_min":28,"x_max":338,"o":"m 330 176 q 251 52 317 103 q 111 1 184 1 q 54 20 74 1 q 33 75 28 39 q 93 162 43 124 q 195 200 145 200 q 262 165 245 200 q 264 159 265 162 q 245 131 262 146 q 215 116 228 116 l 190 130 q 144 144 165 144 q 97 113 103 144 q 163 58 88 58 q 267 140 254 58 q 249 218 275 185 q 178 252 223 252 q 129 238 157 252 q 96 224 98 224 q 90 235 88 224 q 151 286 95 262 q 228 307 198 307 q 309 268 279 307 q 330 176 338 229 m 273 391 q 261 381 271 381 q 186 452 248 381 q 144 517 140 501 q 157 528 144 528 q 211 482 173 528 q 273 391 276 406 z "},"â":{"ha":321,"x_min":28,"x_max":355,"o":"m 330 176 q 251 52 317 103 q 111 1 184 1 q 54 20 74 1 q 33 75 28 39 q 93 162 43 124 q 195 200 145 200 q 262 165 245 200 q 264 159 265 162 q 245 131 262 146 q 215 116 228 116 l 190 130 q 144 144 165 144 q 97 113 103 144 q 163 58 88 58 q 267 140 254 58 q 249 218 275 185 q 178 252 223 252 q 129 238 157 252 q 96 224 98 224 q 90 235 88 224 q 151 286 95 262 q 228 307 198 307 q 309 268 279 307 q 330 176 338 229 m 350 453 q 331 425 348 440 q 302 409 313 409 q 283 445 294 409 q 252 481 271 481 q 193 446 229 481 q 150 412 157 412 q 145 417 145 412 q 206 485 151 444 q 290 527 262 527 q 335 503 315 527 q 350 453 355 477 z "},"ä":{"ha":321,"x_min":28,"x_max":366,"o":"m 330 176 q 251 52 317 103 q 111 1 184 1 q 54 20 74 1 q 33 75 28 39 q 93 162 43 124 q 195 200 145 200 q 262 165 245 200 q 264 159 265 162 q 245 131 262 146 q 215 116 228 116 l 190 130 q 144 144 165 144 q 97 113 103 144 q 163 58 88 58 q 267 140 254 58 q 249 218 275 185 q 178 252 223 252 q 129 238 157 252 q 96 224 98 224 q 90 235 88 224 q 151 286 95 262 q 228 307 198 307 q 309 268 279 307 q 330 176 338 229 m 234 500 q 205 471 232 488 q 165 455 178 455 q 158 478 153 455 q 181 508 160 494 q 218 522 202 522 q 234 500 239 522 m 363 503 q 338 471 359 486 q 299 455 316 455 q 284 466 281 455 q 303 505 288 484 q 336 527 319 527 q 363 503 366 527 z "},"ã":{"ha":321,"x_min":28,"x_max":408,"o":"m 330 176 q 251 52 317 103 q 111 1 184 1 q 54 20 74 1 q 33 75 28 39 q 93 162 43 124 q 195 200 145 200 q 262 165 245 200 q 264 159 265 162 q 245 131 262 146 q 215 116 228 116 l 190 130 q 144 144 165 144 q 97 113 103 144 q 163 58 88 58 q 267 140 254 58 q 249 218 275 185 q 178 252 223 252 q 129 238 157 252 q 96 224 98 224 q 90 235 88 224 q 151 286 95 262 q 228 307 198 307 q 309 268 279 307 q 330 176 338 229 m 407 532 q 358 458 401 498 q 281 419 317 419 q 226 452 255 419 q 178 486 197 486 q 149 458 170 486 q 114 430 127 430 q 113 437 112 430 l 123 453 q 225 527 168 527 q 279 500 249 527 q 328 474 311 474 q 343 494 336 484 q 358 514 351 504 q 397 538 381 538 q 407 532 408 538 z "},"å":{"ha":321,"x_min":28,"x_max":372,"o":"m 330 176 q 251 52 317 103 q 111 1 184 1 q 54 20 74 1 q 33 75 28 39 q 93 162 43 124 q 195 200 145 200 q 262 165 245 200 q 264 159 265 162 q 245 131 262 146 q 215 116 228 116 l 190 130 q 144 144 165 144 q 97 113 103 144 q 163 58 88 58 q 267 140 254 58 q 249 218 275 185 q 178 252 223 252 q 129 238 157 252 q 96 224 98 224 q 90 235 88 224 q 151 286 95 262 q 228 307 198 307 q 309 268 279 307 q 330 176 338 229 m 308 490 q 296 533 311 514 q 257 557 280 551 q 234 520 237 537 q 241 487 231 502 q 271 471 252 471 q 308 490 304 471 m 365 528 q 316 454 357 486 q 233 423 277 423 q 185 486 174 423 q 235 562 193 532 q 227 569 224 559 q 252 600 230 589 q 295 612 273 612 q 351 587 330 612 q 365 528 372 563 z "},"é":{"ha":300,"x_min":13,"x_max":352,"o":"m 252 215 q 251 229 253 222 q 243 243 248 237 q 232 253 239 249 q 219 257 226 257 q 139 207 184 257 q 88 120 96 157 q 88 102 87 110 q 134 126 111 114 q 180 152 157 139 q 252 215 248 189 m 314 79 q 223 21 307 41 q 110 5 162 5 q 26 83 13 5 q 116 226 37 145 q 260 310 199 310 q 298 292 283 310 q 308 250 313 274 q 221 148 298 199 q 96 82 186 126 q 156 61 111 61 q 198 65 171 61 q 265 79 224 70 q 308 88 304 88 q 314 79 315 88 m 351 517 q 288 452 348 502 q 186 381 197 381 q 178 391 174 381 q 271 482 180 406 q 342 528 326 528 q 351 517 352 528 z "},"è":{"ha":300,"x_min":13,"x_max":315,"o":"m 252 215 q 251 229 253 222 q 243 243 248 237 q 232 253 239 249 q 219 257 226 257 q 139 207 184 257 q 88 120 96 157 q 88 102 87 110 q 134 126 111 114 q 180 152 157 139 q 252 215 248 189 m 314 79 q 223 21 307 41 q 110 5 162 5 q 26 83 13 5 q 116 226 37 145 q 260 310 199 310 q 298 292 283 310 q 308 250 313 274 q 221 148 298 199 q 96 82 186 126 q 156 61 111 61 q 198 65 171 61 q 265 79 224 70 q 308 88 304 88 q 314 79 315 88 m 273 391 q 261 381 271 381 q 186 452 248 381 q 144 517 140 501 q 157 528 144 528 q 211 482 173 528 q 273 391 276 406 z "},"ê":{"ha":300,"x_min":13,"x_max":355,"o":"m 252 215 q 251 229 253 222 q 243 243 248 237 q 232 253 239 249 q 219 257 226 257 q 139 207 184 257 q 88 120 96 157 q 88 102 87 110 q 134 126 111 114 q 180 152 157 139 q 252 215 248 189 m 314 79 q 223 21 307 41 q 110 5 162 5 q 26 83 13 5 q 116 226 37 145 q 260 310 199 310 q 298 292 283 310 q 308 250 313 274 q 221 148 298 199 q 96 82 186 126 q 156 61 111 61 q 198 65 171 61 q 265 79 224 70 q 308 88 304 88 q 314 79 315 88 m 350 453 q 331 425 348 440 q 302 409 313 409 q 283 445 294 409 q 252 481 271 481 q 193 446 229 481 q 150 412 157 412 q 145 417 145 412 q 206 485 151 444 q 290 527 262 527 q 335 503 315 527 q 350 453 355 477 z "},"ë":{"ha":300,"x_min":13,"x_max":351,"o":"m 252 215 q 251 229 253 222 q 243 243 248 237 q 232 253 239 249 q 219 257 226 257 q 139 207 184 257 q 88 120 96 157 q 88 102 87 110 q 134 126 111 114 q 180 152 157 139 q 252 215 248 189 m 314 79 q 223 21 307 41 q 110 5 162 5 q 26 83 13 5 q 116 226 37 145 q 260 310 199 310 q 298 292 283 310 q 308 250 313 274 q 221 148 298 199 q 96 82 186 126 q 156 61 111 61 q 198 65 171 61 q 265 79 224 70 q 308 88 304 88 q 314 79 315 88 m 220 500 q 191 471 218 488 q 151 455 164 455 q 144 478 139 455 q 167 508 146 494 q 203 522 188 522 q 220 500 225 522 m 349 503 q 323 471 345 486 q 285 455 302 455 q 270 466 267 455 q 289 505 273 484 q 321 527 304 527 q 349 503 351 527 z "},"í":{"ha":106,"x_min":18,"x_max":269,"o":"m 140 306 q 128 248 142 292 l 105 178 q 68 36 94 140 q 49 14 67 27 q 23 0 31 0 q 18 6 18 0 q 27 66 18 30 q 56 153 37 103 q 78 211 64 176 q 113 290 92 245 q 136 309 123 309 q 140 306 139 309 m 268 517 q 204 452 264 502 q 103 381 113 381 q 94 391 91 381 q 188 482 96 406 q 258 528 242 528 q 268 517 269 528 z "},"ì":{"ha":106,"x_min":18,"x_max":178,"o":"m 140 306 q 128 248 142 292 l 105 178 q 68 36 94 140 q 49 14 67 27 q 23 0 31 0 q 18 6 18 0 q 27 66 18 30 q 56 153 37 103 q 78 211 64 176 q 113 290 92 245 q 136 309 123 309 q 140 306 139 309 m 176 391 q 163 381 174 381 q 88 452 151 381 q 46 517 43 501 q 59 528 47 528 q 113 482 75 528 q 176 391 178 406 z "},"î":{"ha":106,"x_min":18,"x_max":271,"o":"m 140 306 q 128 248 142 292 l 105 178 q 68 36 94 140 q 49 14 67 27 q 23 0 31 0 q 18 6 18 0 q 27 66 18 30 q 56 153 37 103 q 78 211 64 176 q 113 290 92 245 q 136 309 123 309 q 140 306 139 309 m 267 453 q 248 425 264 440 q 219 409 230 409 q 199 445 211 409 q 168 481 188 481 q 110 446 145 481 q 66 412 74 412 q 62 417 62 412 q 123 485 67 444 q 206 527 179 527 q 252 503 232 527 q 267 453 271 477 z "},"ï":{"ha":106,"x_min":18,"x_max":296,"o":"m 140 306 q 128 248 142 292 l 105 178 q 68 36 94 140 q 49 14 67 27 q 23 0 31 0 q 18 6 18 0 q 27 66 18 30 q 56 153 37 103 q 78 211 64 176 q 113 290 92 245 q 136 309 123 309 q 140 306 139 309 m 164 500 q 135 471 162 488 q 95 455 109 455 q 88 478 83 455 q 111 508 90 494 q 148 522 132 522 q 164 500 170 522 m 293 503 q 268 471 290 486 q 229 455 246 455 q 214 466 212 455 q 233 505 218 484 q 266 527 249 527 q 293 503 296 527 z "},"ñ":{"ha":241,"x_min":0,"x_max":391,"o":"m 269 210 q 211 44 254 133 q 161 5 192 5 q 154 15 153 5 q 169 60 156 28 q 194 130 184 101 q 206 175 203 158 q 207 184 207 180 q 208 194 208 189 q 208 205 208 199 q 207 218 208 211 q 195 251 205 251 q 100 155 158 251 q 39 23 46 66 q 36 17 39 21 q 29 9 33 13 q 21 3 25 5 q 14 0 16 0 q 7 37 0 0 q 69 167 16 92 q 172 275 120 239 q 241 308 216 308 q 271 270 265 308 q 269 210 273 241 m 391 517 q 342 444 385 484 q 265 405 300 405 q 210 438 239 405 q 162 471 181 471 q 132 444 154 471 q 98 416 111 416 q 96 422 96 416 l 106 439 q 209 513 152 513 q 263 486 233 513 q 312 460 294 460 q 327 479 319 469 q 342 500 334 490 q 381 524 365 524 q 391 517 391 524 z "},"ó":{"ha":315,"x_min":14,"x_max":352,"o":"m 262 138 q 241 214 269 179 q 174 250 213 250 q 88 140 107 250 q 87 108 85 123 q 96 82 89 93 q 116 64 104 71 q 144 58 127 58 q 218 80 180 58 q 262 138 257 103 m 330 180 q 243 57 318 113 q 102 2 169 2 q 31 97 14 2 q 100 234 44 168 q 229 308 161 308 q 308 267 276 308 q 330 180 339 229 m 351 517 q 288 452 348 502 q 186 381 197 381 q 178 391 174 381 q 271 482 180 406 q 342 528 326 528 q 351 517 352 528 z "},"ò":{"ha":315,"x_min":14,"x_max":339,"o":"m 262 138 q 241 214 269 179 q 174 250 213 250 q 88 140 107 250 q 87 108 85 123 q 96 82 89 93 q 116 64 104 71 q 144 58 127 58 q 218 80 180 58 q 262 138 257 103 m 330 180 q 243 57 318 113 q 102 2 169 2 q 31 97 14 2 q 100 234 44 168 q 229 308 161 308 q 308 267 276 308 q 330 180 339 229 m 273 391 q 261 381 271 381 q 186 452 248 381 q 144 517 140 501 q 157 528 144 528 q 211 482 173 528 q 273 391 276 406 z "},"ô":{"ha":315,"x_min":14,"x_max":355,"o":"m 262 138 q 241 214 269 179 q 174 250 213 250 q 88 140 107 250 q 87 108 85 123 q 96 82 89 93 q 116 64 104 71 q 144 58 127 58 q 218 80 180 58 q 262 138 257 103 m 330 180 q 243 57 318 113 q 102 2 169 2 q 31 97 14 2 q 100 234 44 168 q 229 308 161 308 q 308 267 276 308 q 330 180 339 229 m 350 453 q 331 425 348 440 q 302 409 313 409 q 283 445 294 409 q 252 481 271 481 q 193 446 229 481 q 150 412 157 412 q 145 417 145 412 q 206 485 151 444 q 290 527 262 527 q 335 503 315 527 q 350 453 355 477 z "},"ö":{"ha":315,"x_min":14,"x_max":366,"o":"m 262 138 q 241 214 269 179 q 174 250 213 250 q 88 140 107 250 q 87 108 85 123 q 96 82 89 93 q 116 64 104 71 q 144 58 127 58 q 218 80 180 58 q 262 138 257 103 m 330 180 q 243 57 318 113 q 102 2 169 2 q 31 97 14 2 q 100 234 44 168 q 229 308 161 308 q 308 267 276 308 q 330 180 339 229 m 234 500 q 205 471 232 488 q 165 455 178 455 q 158 478 153 455 q 181 508 160 494 q 218 522 202 522 q 234 500 239 522 m 363 503 q 338 471 359 486 q 299 455 316 455 q 284 466 281 455 q 303 505 288 484 q 336 527 319 527 q 363 503 366 527 z "},"õ":{"ha":315,"x_min":14,"x_max":405,"o":"m 262 138 q 241 214 269 179 q 174 250 213 250 q 88 140 107 250 q 87 108 85 123 q 96 82 89 93 q 116 64 104 71 q 144 58 127 58 q 218 80 180 58 q 262 138 257 103 m 330 180 q 243 57 318 113 q 102 2 169 2 q 31 97 14 2 q 100 234 44 168 q 229 308 161 308 q 308 267 276 308 q 330 180 339 229 m 404 517 q 355 444 398 484 q 279 405 314 405 q 223 438 252 405 q 176 471 195 471 q 146 444 168 471 q 111 416 124 416 q 110 422 109 416 l 120 439 q 222 513 165 513 q 277 486 246 513 q 326 460 308 460 q 340 479 333 469 q 355 500 348 490 q 395 524 378 524 q 404 517 405 524 z "},"ú":{"ha":367,"x_min":26,"x_max":378,"o":"m 370 68 q 349 39 368 56 q 316 22 330 22 q 271 134 288 22 q 195 49 243 86 q 96 2 140 2 q 41 41 57 2 q 35 117 26 75 q 82 226 41 155 q 159 307 131 307 q 163 301 165 307 q 131 238 162 293 q 94 153 100 185 q 100 93 89 120 q 144 60 113 60 q 229 152 191 60 q 302 272 272 256 q 319 278 313 278 q 328 271 326 278 q 334 241 331 259 q 341 200 338 224 q 372 72 352 140 l 370 68 m 378 517 q 314 452 374 502 q 213 381 223 381 q 204 391 201 381 q 298 482 206 406 q 368 528 352 528 q 378 517 378 528 z "},"ù":{"ha":367,"x_min":26,"x_max":372,"o":"m 370 68 q 349 39 368 56 q 316 22 330 22 q 271 134 288 22 q 195 49 243 86 q 96 2 140 2 q 41 41 57 2 q 35 117 26 75 q 82 226 41 155 q 159 307 131 307 q 163 301 165 307 q 131 238 162 293 q 94 153 100 185 q 100 93 89 120 q 144 60 113 60 q 229 152 191 60 q 302 272 272 256 q 319 278 313 278 q 328 271 326 278 q 334 241 331 259 q 341 200 338 224 q 372 72 352 140 l 370 68 m 301 391 q 289 381 299 381 q 214 452 276 381 q 172 517 168 501 q 184 528 172 528 q 239 482 201 528 q 301 391 304 406 z "},"û":{"ha":367,"x_min":26,"x_max":382,"o":"m 370 68 q 349 39 368 56 q 316 22 330 22 q 271 134 288 22 q 195 49 243 86 q 96 2 140 2 q 41 41 57 2 q 35 117 26 75 q 82 226 41 155 q 159 307 131 307 q 163 301 165 307 q 131 238 162 293 q 94 153 100 185 q 100 93 89 120 q 144 60 113 60 q 229 152 191 60 q 302 272 272 256 q 319 278 313 278 q 328 271 326 278 q 334 241 331 259 q 341 200 338 224 q 372 72 352 140 l 370 68 m 378 453 q 359 425 376 440 q 330 409 341 409 q 311 445 322 409 q 279 481 299 481 q 221 446 256 481 q 178 412 185 412 q 173 417 173 412 q 234 485 178 444 q 317 527 290 527 q 363 503 343 527 q 378 453 382 477 z "},"ü":{"ha":367,"x_min":26,"x_max":393,"o":"m 370 68 q 349 39 368 56 q 316 22 330 22 q 271 134 288 22 q 195 49 243 86 q 96 2 140 2 q 41 41 57 2 q 35 117 26 75 q 82 226 41 155 q 159 307 131 307 q 163 301 165 307 q 131 238 162 293 q 94 153 100 185 q 100 93 89 120 q 144 60 113 60 q 229 152 191 60 q 302 272 272 256 q 319 278 313 278 q 328 271 326 278 q 334 241 331 259 q 341 200 338 224 q 372 72 352 140 l 370 68 m 262 500 q 233 471 260 488 q 193 455 206 455 q 186 478 181 455 q 209 508 188 494 q 245 522 230 522 q 262 500 267 522 m 391 503 q 366 471 387 486 q 327 455 344 455 q 312 466 309 455 q 331 505 315 484 q 363 527 347 527 q 391 503 393 527 z "},"°":{"ha":206,"x_min":125,"x_max":323,"o":"m 259 694 q 247 736 262 718 q 208 762 231 755 q 185 724 189 742 q 186 706 184 715 q 194 690 189 697 q 206 679 199 684 q 222 675 213 675 q 259 694 256 675 m 316 732 q 268 657 309 688 q 184 626 229 626 q 136 688 125 626 q 186 765 144 735 q 178 772 175 764 q 187 790 180 782 q 203 805 194 799 q 224 814 213 811 q 247 817 235 817 q 302 791 281 817 q 316 732 323 766 z "},"¢":{"ha":336,"x_min":84,"x_max":437,"o":"m 319 662 q 286 669 306 669 q 213 637 245 669 q 175 562 182 606 q 184 412 156 462 q 254 544 220 482 q 319 662 287 606 m 419 572 q 385 519 411 523 l 382 522 q 374 589 376 555 q 342 646 367 623 l 201 389 q 271 366 229 366 q 298 370 280 366 q 326 374 317 374 q 334 363 336 374 q 286 321 328 338 q 220 310 248 310 q 165 321 192 310 q 145 282 158 306 q 113 227 132 258 q 87 210 99 210 q 85 214 84 210 q 144 336 85 218 q 108 498 89 387 q 180 644 121 576 q 321 718 245 718 q 335 716 328 718 q 349 714 342 715 l 383 774 q 429 819 413 819 q 435 811 437 819 l 374 703 q 419 572 435 662 z "},"¶":{"ha":619,"x_min":87,"x_max":708,"o":"m 683 516 q 674 477 680 505 q 659 403 668 450 q 626 261 646 345 q 581 62 607 177 q 566 5 576 39 q 543 -75 556 -29 q 491 -117 522 -117 q 483 -107 479 -117 q 526 72 485 -93 q 587 333 564 230 q 619 488 610 436 q 612 669 640 604 q 488 762 572 762 q 288 675 397 762 q 163 499 180 589 q 214 355 148 416 q 359 293 275 301 q 369 344 364 319 q 377 391 373 368 q 393 489 387 446 q 403 562 399 531 q 408 642 408 642 q 425 665 408 652 q 452 680 441 680 q 455 675 455 680 q 435 452 463 612 q 422 387 431 427 q 401 293 414 348 q 481 330 447 298 q 521 362 514 362 q 522 357 524 362 q 519 349 522 354 q 511 334 516 343 q 393 256 467 273 q 362 106 380 196 q 323 -108 345 16 q 313 -121 323 -113 q 298 -129 303 -129 q 295 -125 294 -129 q 310 60 287 -66 q 349 250 313 76 q 339 249 342 250 q 334 249 335 249 q 164 309 235 249 q 105 470 87 373 q 273 699 125 583 q 534 817 420 817 q 665 739 621 817 q 683 516 708 661 z "},"®":{"ha":606,"x_min":45,"x_max":659,"o":"m 370 363 q 349 436 384 436 q 286 347 320 436 q 267 292 275 320 q 251 235 258 264 l 326 288 q 370 363 362 315 m 408 155 q 389 129 406 142 q 360 116 374 116 q 285 159 359 116 q 243 195 252 176 l 239 175 q 205 110 228 110 q 203 206 187 110 q 318 454 235 382 q 391 488 359 488 q 433 401 448 488 q 310 239 418 315 q 369 203 316 231 q 408 155 412 180 m 635 298 q 500 93 616 180 q 265 6 385 6 q 101 73 157 6 q 65 248 45 138 q 134 410 78 331 q 267 539 191 490 q 277 543 275 543 q 280 539 281 543 q 247 503 279 532 q 205 463 208 468 q 119 290 136 383 q 154 125 102 190 q 307 61 207 61 q 473 113 397 61 q 568 259 553 170 q 550 380 579 321 q 488 465 527 424 q 455 505 454 500 q 475 533 457 515 q 507 550 494 550 q 549 521 515 550 q 635 298 659 427 z "},"©":{"ha":541,"x_min":36,"x_max":581,"o":"m 369 132 q 351 108 368 123 q 324 92 334 94 q 302 89 315 90 q 274 88 290 88 q 148 164 135 88 q 232 281 157 216 q 359 346 306 346 q 382 338 371 346 q 391 319 393 330 q 363 298 387 298 q 353 300 360 298 q 342 301 346 301 q 247 257 295 301 q 208 203 212 224 q 360 139 197 139 q 369 132 370 139 m 558 249 q 425 68 538 140 q 210 2 321 2 q 85 44 130 2 q 49 167 36 89 q 103 282 58 216 q 191 382 145 343 q 211 391 203 391 q 214 388 216 391 q 161 326 216 391 q 98 207 107 262 q 133 93 85 134 q 251 56 174 56 q 397 89 331 56 q 492 201 479 130 q 367 403 511 310 q 350 412 360 406 q 328 426 340 418 q 324 436 323 429 q 343 463 326 448 q 374 478 361 478 q 393 471 379 478 q 558 249 581 388 z "},"":{"ha":519,"x_min":154,"x_max":626,"o":"m 376 804 q 357 781 374 795 q 332 768 342 768 q 281 768 331 767 q 259 603 258 600 q 243 583 258 595 q 219 570 227 570 q 214 578 214 570 q 219 607 216 588 q 227 657 222 627 q 238 714 233 688 q 249 766 243 741 q 215 762 239 766 q 180 758 191 758 q 156 766 154 758 q 239 804 160 788 q 294 814 270 811 q 338 817 319 817 q 376 804 377 817 m 618 678 q 600 619 612 640 q 577 597 595 611 q 552 585 560 585 q 553 624 547 585 q 513 728 572 728 q 486 669 503 728 q 463 642 483 657 q 432 626 444 626 q 425 637 423 626 l 433 709 q 408 762 436 762 q 367 639 388 762 q 334 582 357 582 q 329 659 315 582 q 449 807 355 807 q 493 755 488 807 q 562 785 530 785 q 614 749 600 785 q 618 678 626 720 z "},"´":{"ha":234,"x_min":191,"x_max":369,"o":"m 368 1016 q 304 950 365 1000 q 203 880 214 880 q 195 890 191 880 q 288 981 197 904 q 359 1027 342 1027 q 368 1016 369 1027 z "},"¨":{"ha":262,"x_min":198,"x_max":410,"o":"m 279 999 q 250 970 277 986 q 210 954 223 954 q 203 977 198 954 q 226 1006 205 992 q 262 1021 247 1021 q 279 999 284 1021 m 408 1001 q 382 969 404 984 q 344 954 361 954 q 329 964 326 954 q 348 1004 332 982 q 380 1025 363 1025 q 408 1001 410 1025 z "},"Æ":{"ha":1097,"x_min":49,"x_max":1184,"o":"m 1177 102 q 1133 57 1171 75 q 957 18 1082 36 q 778 2 845 2 q 623 36 687 2 q 587 20 601 20 q 562 28 578 20 q 484 119 503 55 q 252 6 352 6 q 93 115 144 6 q 69 326 49 210 q 243 646 100 498 q 389 762 309 713 q 555 819 483 819 q 652 596 692 819 q 593 398 636 514 q 492 221 538 258 q 472 211 479 211 q 469 214 468 212 l 470 218 q 595 554 572 421 q 513 765 633 765 q 304 665 417 765 q 134 368 164 538 q 203 104 102 192 q 301 65 247 65 q 403 100 347 65 q 438 125 418 109 q 485 164 458 141 q 537 199 524 199 q 555 165 542 199 q 625 290 566 223 q 742 387 677 347 q 647 507 630 410 q 721 642 657 568 q 777 702 748 675 q 838 750 806 729 q 1034 819 941 819 q 1131 796 1088 819 q 1175 718 1184 768 q 1153 669 1171 698 q 1114 634 1131 634 q 1111 637 1111 635 q 1114 647 1112 642 q 1120 660 1117 653 q 1125 672 1122 666 q 1128 682 1128 677 q 1089 752 1137 728 q 998 770 1050 770 q 791 678 885 770 q 711 549 721 612 q 871 437 691 437 q 881 428 883 437 q 829 380 876 398 q 805 373 819 378 q 772 361 791 368 q 621 203 637 303 q 690 89 606 126 q 842 62 749 62 q 910 68 869 62 q 1006 86 951 75 q 1103 104 1062 98 q 1170 110 1143 110 q 1177 102 1178 110 z "},"Ø":{"ha":597,"x_min":41,"x_max":676,"o":"m 597 398 q 552 678 627 569 l 368 421 q 277 289 331 368 q 152 102 224 210 q 265 54 192 54 q 469 146 374 54 q 597 398 570 245 m 662 444 q 547 186 635 298 q 404 59 485 109 q 231 2 313 2 q 113 47 157 2 q 51 1 79 1 q 44 12 41 1 q 85 85 46 24 q 66 270 46 157 q 90 356 73 304 q 136 475 107 407 q 155 515 142 490 q 180 532 166 529 l 184 529 q 155 457 182 528 q 127 382 138 418 q 111 315 117 347 q 125 144 94 214 q 316 414 189 232 q 401 537 351 464 q 522 711 452 610 q 404 755 473 755 q 274 716 340 755 q 176 645 237 694 q 120 606 132 606 q 110 614 109 606 q 126 637 113 623 q 277 760 190 708 q 452 819 373 819 q 573 778 524 819 q 624 817 606 817 q 635 807 636 817 q 602 750 634 799 q 663 608 647 696 q 662 444 676 529 z "},"±":{"ha":318,"x_min":16,"x_max":335,"o":"m 302 30 q 283 6 300 21 q 254 -9 266 -7 q 229 -12 244 -11 q 193 -13 214 -13 q 166 -12 184 -13 q 132 -11 148 -11 l 117 -11 l 104 -11 q 96 -11 100 -11 q 85 -12 91 -11 q 67 -13 75 -12 q 54 -13 60 -13 q 18 -5 16 -13 q 37 15 20 5 q 278 39 77 39 q 302 30 303 39 m 334 203 q 315 179 332 194 q 287 162 298 164 q 208 160 270 159 l 203 124 q 195 88 197 96 q 174 66 192 80 q 148 54 157 54 q 147 82 141 54 q 150 100 146 81 q 162 160 154 119 q 154 161 157 161 q 148 161 151 161 l 141 161 q 122 160 136 161 q 97 159 109 159 l 85 159 q 49 167 47 159 q 69 189 51 178 q 174 210 102 208 q 178 239 175 222 q 187 280 182 257 q 198 294 189 287 q 214 301 208 301 q 218 211 234 301 q 307 213 290 213 q 334 203 335 213 z "},"¥":{"ha":534,"x_min":94,"x_max":660,"o":"m 657 742 q 645 702 655 730 q 618 627 635 673 q 570 505 600 580 q 494 321 539 429 q 564 328 564 326 q 570 321 571 328 q 475 277 563 283 l 458 237 q 527 247 503 244 q 553 250 550 250 q 562 243 563 250 q 441 193 555 206 q 428 162 434 176 q 418 134 422 147 q 403 94 410 114 q 389 54 396 73 q 331 0 366 0 q 323 13 321 0 q 341 75 326 31 q 383 189 356 119 q 314 203 311 191 q 344 231 317 223 q 401 235 357 234 l 418 275 q 328 293 326 280 q 437 321 332 321 q 479 418 455 361 q 536 554 503 476 q 237 338 373 338 q 116 427 143 338 q 113 598 94 496 q 134 683 120 639 q 167 775 147 726 q 173 787 170 781 q 182 803 177 794 q 211 824 193 821 l 214 821 l 214 819 q 195 764 214 821 q 162 646 172 701 q 164 481 146 549 q 277 391 191 391 q 566 661 408 391 q 577 683 570 670 q 594 713 585 695 q 649 755 621 755 q 657 742 660 755 z "},"æ":{"ha":507,"x_min":26,"x_max":537,"o":"m 475 215 q 466 244 476 231 q 441 257 456 257 q 361 207 406 257 q 310 120 317 157 q 310 102 309 111 q 356 126 333 114 q 403 152 379 139 q 475 215 470 189 m 536 79 q 446 21 529 41 q 332 5 385 5 q 301 7 314 5 q 270 1 281 1 q 229 21 246 1 q 212 41 220 31 q 198 60 205 51 q 87 7 134 7 q 39 43 53 7 q 33 110 26 72 q 108 242 45 178 q 237 307 170 307 q 286 286 268 307 q 300 235 304 265 q 264 185 291 185 l 262 186 q 247 221 252 210 q 241 233 241 232 q 197 254 227 254 q 131 221 158 254 q 100 152 107 191 q 103 97 96 119 q 138 67 111 67 q 195 100 161 67 q 244 132 229 132 q 262 120 254 132 q 355 241 291 180 q 483 310 427 310 q 504 305 494 310 q 520 292 513 300 q 530 273 527 283 q 530 250 532 262 q 444 148 521 199 q 394 120 425 136 q 318 82 363 103 q 346 64 328 68 q 351 65 349 64 q 354 65 353 65 q 360 62 359 65 q 370 61 366 62 q 378 61 374 61 q 488 79 410 61 q 530 88 524 88 q 536 79 537 88 z "},"ø":{"ha":315,"x_min":21,"x_max":342,"o":"m 203 243 q 174 250 185 250 q 88 140 107 250 q 96 85 82 108 q 124 125 98 86 q 203 243 151 165 m 262 138 q 239 220 271 182 q 188 144 215 183 q 131 60 161 105 q 144 58 137 58 q 218 80 180 58 q 262 138 257 103 m 330 180 q 240 55 319 111 q 93 2 162 0 q 31 -42 62 -42 q 23 -33 21 -42 q 52 18 24 -25 q 31 97 22 43 q 100 235 44 168 q 229 308 161 308 q 239 308 235 308 q 248 307 243 307 q 314 370 289 370 q 326 361 327 370 q 314 342 325 359 q 282 292 303 325 q 330 180 342 250 z "},"¿":{"ha":567,"x_min":32,"x_max":685,"o":"m 685 779 q 650 726 680 751 q 591 701 621 701 q 559 715 557 701 q 597 782 565 745 q 660 819 631 819 q 674 801 663 819 q 685 779 685 784 m 575 161 q 530 110 572 143 q 500 87 515 97 q 472 69 486 77 q 207 0 349 0 q 92 24 135 0 q 43 119 32 56 q 186 290 56 189 q 425 449 232 326 q 559 562 554 532 q 557 570 559 565 q 555 581 556 575 q 552 591 553 586 q 551 597 551 595 q 571 628 553 610 q 602 645 588 645 q 623 630 616 645 q 629 602 631 616 q 486 449 617 541 l 247 294 q 106 157 115 207 q 160 74 96 100 q 273 54 208 54 q 530 134 397 54 q 523 146 532 138 q 543 164 527 153 q 566 175 557 175 q 575 161 578 175 z "},"¡":{"ha":220,"x_min":16,"x_max":302,"o":"m 300 771 q 273 730 298 752 q 231 707 249 707 q 214 723 222 707 q 211 749 208 739 q 238 795 214 768 q 279 824 261 824 q 294 802 287 824 q 300 771 302 780 m 234 627 q 201 499 228 597 q 170 383 191 458 q 119 195 150 308 q 102 131 114 170 q 72 41 90 93 q 26 2 54 2 q 18 15 16 2 q 33 73 22 34 q 62 174 44 112 q 101 301 78 225 q 154 481 123 378 q 167 531 161 507 q 180 580 174 555 q 231 654 205 654 q 234 627 239 654 z "},"«":{"ha":473,"x_min":41,"x_max":481,"o":"m 460 68 q 441 41 458 56 q 412 26 423 26 q 403 29 408 26 q 370 52 390 37 q 321 85 350 66 q 254 140 253 134 q 293 178 258 157 q 375 219 308 188 q 456 272 422 241 q 475 283 469 283 q 479 278 481 283 q 337 168 472 237 q 460 68 467 98 m 248 68 q 229 41 245 56 q 199 26 211 26 q 191 29 194 26 q 158 52 178 37 q 109 85 137 66 q 43 140 41 134 q 80 178 46 157 q 162 219 94 187 q 243 272 210 241 q 264 283 256 283 q 267 278 268 283 q 125 168 259 237 q 248 68 254 98 z "},"»":{"ha":435,"x_min":50,"x_max":445,"o":"m 444 167 q 353 88 441 148 q 245 29 267 29 q 239 39 235 29 q 298 90 241 54 q 334 114 315 102 q 370 138 352 126 q 254 257 250 237 q 280 279 257 279 q 367 221 285 279 l 410 195 q 444 167 445 173 m 257 167 q 167 88 254 148 q 59 29 80 29 q 54 39 50 29 q 111 90 56 54 q 147 114 129 102 q 184 138 165 126 q 67 257 64 237 q 95 279 71 279 q 180 221 98 279 q 203 208 192 214 q 224 195 214 201 q 257 167 258 174 z "},"":{"ha":447,"x_min":20,"x_max":444,"o":"m 439 88 q 405 37 435 63 q 351 12 375 12 q 326 44 319 12 q 350 92 328 67 q 393 116 371 116 q 439 88 444 116 m 140 82 q 105 32 136 58 q 51 6 75 6 q 26 39 20 6 q 50 85 29 61 q 94 110 71 110 q 140 82 144 110 m 296 92 q 261 39 292 62 q 201 15 229 15 q 174 41 168 15 q 208 99 180 69 q 264 127 236 127 q 296 92 302 127 z "},"À":{"ha":590,"x_min":49,"x_max":692,"o":"m 645 65 q 622 35 642 50 q 587 20 603 20 q 562 28 578 20 q 484 119 503 55 q 252 6 352 6 q 93 115 144 6 q 69 326 49 210 q 243 646 100 500 q 389 762 309 713 q 555 819 483 819 q 652 596 692 819 q 593 398 636 514 q 492 221 538 258 q 472 211 479 211 q 469 214 467 211 l 470 218 q 552 403 521 319 q 595 554 583 487 q 513 765 633 765 q 304 665 417 765 q 134 368 164 538 q 203 104 102 192 q 301 65 247 65 q 403 100 347 65 q 438 125 418 109 q 485 164 458 141 q 537 199 524 199 q 547 190 543 199 q 578 120 565 138 q 639 75 588 111 q 645 65 646 70 m 526 890 q 514 880 524 880 q 439 950 501 880 q 397 1016 393 1000 q 410 1027 397 1027 q 464 981 426 1027 q 526 890 529 904 z "},"Ã":{"ha":590,"x_min":49,"x_max":730,"o":"m 645 65 q 622 35 642 50 q 587 20 603 20 q 562 28 578 20 q 484 119 503 55 q 252 6 352 6 q 93 115 144 6 q 69 326 49 210 q 243 646 100 500 q 389 762 309 713 q 555 819 483 819 q 652 596 692 819 q 593 398 636 514 q 492 221 538 258 q 472 211 479 211 q 469 214 467 211 l 470 218 q 552 403 521 319 q 595 554 583 487 q 513 765 633 765 q 304 665 417 765 q 134 368 164 538 q 203 104 102 192 q 301 65 247 65 q 403 100 347 65 q 438 125 418 109 q 485 164 458 141 q 537 199 524 199 q 547 190 543 199 q 578 120 565 138 q 639 75 588 111 q 645 65 646 70 m 730 1030 q 681 957 724 996 q 604 918 640 918 q 549 951 578 918 q 501 984 520 984 q 471 956 493 984 q 437 928 450 928 q 435 935 435 928 l 446 951 q 548 1025 491 1025 q 602 999 572 1025 q 651 972 633 972 q 666 992 659 982 q 681 1013 673 1002 q 720 1037 704 1037 q 730 1030 730 1037 z "},"Õ":{"ha":597,"x_min":47,"x_max":686,"o":"m 662 444 q 547 186 635 298 q 404 59 485 109 q 231 2 313 2 q 85 88 127 2 q 66 270 47 162 q 136 475 80 343 q 155 515 142 490 q 180 532 168 532 q 184 529 183 531 q 172 499 178 517 q 155 457 165 481 q 111 315 121 374 q 127 139 93 212 q 265 54 167 54 q 469 146 374 54 q 597 398 570 245 q 575 633 621 529 q 404 755 525 755 q 274 716 340 755 q 230 687 254 705 q 177 645 206 669 q 120 606 132 606 q 110 614 109 606 q 126 637 113 623 q 277 760 191 708 q 452 819 373 819 q 637 691 581 819 q 662 444 686 583 m 618 1030 q 570 957 612 996 q 493 918 528 918 q 437 951 467 918 q 390 984 409 984 q 360 956 382 984 q 326 928 338 928 q 324 935 323 928 l 334 951 q 437 1025 380 1025 q 491 999 460 1025 q 540 972 522 972 q 555 992 547 982 q 570 1013 562 1002 q 609 1037 593 1037 q 618 1030 619 1037 z "},"":{"ha":1072,"x_min":47,"x_max":1144,"o":"m 701 387 q 654 404 674 393 q 644 371 650 389 q 631 336 638 354 q 664 362 646 349 q 701 387 682 374 m 1137 102 q 1093 57 1132 77 q 918 18 1048 35 q 737 2 802 2 q 588 33 648 2 q 514 148 509 72 q 231 2 372 2 q 85 88 128 2 q 66 270 47 162 q 89 353 71 302 q 136 475 106 404 q 143 491 139 481 q 155 515 148 501 q 180 532 165 528 l 184 529 q 176 508 182 526 q 155 457 169 490 q 127 384 138 419 q 111 315 117 349 q 127 139 93 212 q 265 54 167 54 q 469 146 374 54 q 597 398 570 245 q 575 633 621 529 q 404 755 525 755 q 275 716 341 755 q 176 645 235 692 q 120 606 130 606 q 110 614 109 606 q 126 637 113 623 q 277 760 191 708 q 452 819 373 819 q 660 617 621 819 q 728 694 691 660 q 808 757 765 728 q 993 819 904 819 q 1090 796 1048 819 q 1135 718 1144 768 q 1112 669 1131 696 q 1073 634 1091 635 l 1071 637 q 1074 646 1072 641 q 1080 659 1076 652 q 1088 682 1086 673 q 1048 752 1096 728 q 957 770 1010 770 q 750 678 844 770 q 671 549 682 611 q 832 437 652 437 q 840 428 842 437 q 788 380 836 398 q 764 373 779 378 q 732 361 750 368 q 580 203 597 304 q 649 89 567 126 q 802 62 709 62 q 869 68 829 62 q 966 86 910 75 q 1062 104 1021 98 q 1130 110 1103 110 q 1137 102 1137 110 z "},"":{"ha":514,"x_min":14,"x_max":537,"o":"m 475 215 q 466 244 476 231 q 441 257 456 257 q 361 206 404 257 q 310 118 317 156 q 310 102 309 111 q 356 126 333 114 q 403 152 379 139 q 475 215 470 189 m 262 138 q 242 214 270 178 q 174 250 214 250 q 88 140 107 250 q 87 108 85 123 q 96 82 89 93 q 116 64 104 71 q 144 58 127 58 q 218 80 180 58 q 262 138 257 103 m 536 79 q 446 21 529 41 q 332 5 385 5 q 247 60 252 5 q 102 2 170 2 q 31 97 14 2 q 100 235 44 168 q 229 308 161 308 q 296 281 269 308 q 330 216 324 254 q 483 310 418 310 q 504 305 494 310 q 520 292 513 300 q 530 273 527 283 q 530 250 532 262 q 440 155 522 205 q 326 71 319 82 q 378 61 334 61 q 422 65 395 61 q 488 79 449 70 q 530 88 524 88 q 536 79 537 88 z "},"":{"ha":220,"x_min":161,"x_max":301,"o":"m 301 680 q 290 671 298 671 q 257 708 270 671 q 248 764 244 739 q 252 775 249 768 q 258 789 254 781 q 274 804 268 804 q 290 782 291 804 q 289 760 290 771 q 287 737 288 749 q 295 696 285 714 q 301 680 301 684 m 224 650 q 215 640 223 640 q 174 701 189 640 q 167 787 161 754 q 184 821 172 821 q 201 808 191 821 q 211 787 211 796 q 215 743 212 772 q 222 671 218 714 q 223 661 223 666 q 224 650 224 656 z "},"":{"ha":220,"x_min":146,"x_max":326,"o":"m 229 764 q 201 708 226 742 q 154 671 175 671 q 148 680 146 671 q 159 696 148 685 q 181 737 176 714 q 194 782 187 760 q 219 804 201 804 q 229 789 225 804 q 229 764 231 774 m 319 787 q 282 701 314 755 q 220 640 246 640 q 213 650 212 640 q 217 659 214 654 q 222 671 219 664 q 275 787 241 709 q 292 808 278 796 q 314 821 307 821 q 319 787 326 821 z "},"":{"ha":139,"x_min":157,"x_max":218,"o":"m 218 688 q 208 681 217 681 q 168 730 182 681 q 163 804 157 773 q 170 819 165 819 q 187 803 180 819 q 192 785 188 800 q 203 743 195 770 q 218 688 218 692 z "},"":{"ha":139,"x_min":142,"x_max":241,"o":"m 239 804 q 205 730 233 775 q 149 681 176 681 q 142 688 142 681 q 174 743 142 689 q 200 785 191 770 q 212 803 209 800 q 236 819 226 819 q 239 804 241 819 z "},"÷":{"ha":290,"x_min":48,"x_max":298,"o":"m 244 271 q 215 231 242 254 q 172 208 189 208 q 167 224 163 208 q 223 294 180 294 q 244 271 249 294 m 208 104 q 180 60 205 85 q 138 36 155 36 q 120 61 116 36 q 144 103 125 82 q 183 125 163 125 q 191 123 186 125 q 199 118 195 121 q 206 111 203 115 q 208 104 209 107 m 295 169 q 279 146 294 161 q 254 133 263 133 q 52 152 81 133 q 50 155 48 153 q 206 183 55 183 q 295 169 298 183 z "},"ÿ":{"ha":321,"x_min":14,"x_max":379,"o":"m 331 104 q 298 -24 321 50 q 239 -194 275 -97 q 231 -208 237 -201 q 219 -220 226 -215 q 203 -230 212 -226 q 189 -233 195 -233 q 185 -214 182 -233 q 200 -155 190 -190 q 227 -73 211 -120 q 252 8 242 -26 q 267 67 262 43 q 272 113 270 91 q 272 154 273 134 q 103 2 178 2 q 47 192 14 2 q 105 308 62 278 q 116 311 109 311 q 113 298 125 311 q 96 229 106 289 q 92 123 85 172 q 141 54 99 54 q 270 228 178 54 q 292 252 274 239 q 319 267 310 267 q 329 259 328 267 q 331 104 348 205 m 248 500 q 218 471 245 488 q 178 455 192 455 q 172 478 167 455 q 195 508 174 494 q 231 522 216 522 q 248 500 253 522 m 376 503 q 351 471 373 486 q 313 455 330 455 q 298 466 295 455 q 317 505 301 484 q 349 527 332 527 q 376 503 379 527 z "},"":{"ha":534,"x_min":94,"x_max":660,"o":"m 657 742 q 646 703 656 731 q 619 627 637 674 q 578 524 604 585 q 519 380 553 463 q 457 234 482 295 q 418 134 433 174 q 385 44 409 106 q 331 0 366 0 q 323 13 321 0 q 339 71 326 31 q 376 172 353 110 q 443 330 404 235 q 536 554 483 425 q 237 338 373 338 q 116 427 143 338 q 113 598 94 496 q 134 686 120 642 q 167 775 147 730 q 173 787 170 781 q 182 803 177 794 q 211 824 193 821 l 214 821 l 214 819 q 195 764 213 819 q 162 646 171 696 q 164 481 146 549 q 277 391 189 391 q 566 661 406 391 q 577 683 570 670 q 594 713 585 695 q 649 755 621 755 q 657 742 660 755 m 431 999 q 402 970 429 986 q 362 954 376 954 q 355 977 351 954 q 378 1006 357 992 q 415 1021 399 1021 q 431 999 437 1021 m 560 1001 q 535 969 557 984 q 496 954 513 954 q 481 964 479 954 q 500 1004 485 982 q 533 1025 516 1025 q 560 1001 563 1025 z "},"":{"ha":252,"x_min":41,"x_max":268,"o":"m 248 68 q 229 41 245 56 q 199 26 211 26 q 191 29 194 26 q 158 52 178 37 q 109 85 137 66 q 43 140 41 134 q 80 178 46 157 q 162 219 94 187 q 243 272 210 241 q 264 283 256 283 q 267 278 268 283 q 125 168 259 237 q 248 68 254 98 z "},"":{"ha":245,"x_min":50,"x_max":258,"o":"m 257 167 q 167 88 254 148 q 59 29 80 29 q 54 39 50 29 q 111 90 56 54 q 147 114 129 102 q 184 138 165 126 q 67 257 64 237 q 95 279 71 279 q 180 221 98 279 q 203 208 192 214 q 224 195 214 201 q 257 167 258 174 z "},"":{"ha":139,"x_min":12,"x_max":111,"o":"m 108 68 q 75 -4 102 37 q 20 -54 46 -54 q 13 -47 12 -54 q 45 7 13 -46 q 70 50 61 35 q 82 67 79 64 q 106 82 96 82 q 108 68 111 82 z "},"":{"ha":220,"x_min":17,"x_max":195,"o":"m 100 26 q 72 -28 96 3 q 24 -65 45 -65 q 18 -56 17 -65 q 29 -40 18 -51 q 52 0 46 -21 q 64 44 57 22 q 88 67 71 67 q 98 52 94 67 q 100 26 101 36 m 190 50 q 153 -34 182 15 q 89 -96 116 -96 q 83 -86 80 -96 q 87 -78 85 -83 q 93 -65 90 -73 q 115 -17 102 -45 q 146 50 128 11 q 162 71 148 58 q 184 83 177 83 q 190 50 195 83 z "},"":{"ha":729,"x_min":18,"x_max":751,"o":"m 673 125 q 629 218 682 178 q 604 195 616 206 q 578 172 591 184 q 547 116 552 149 q 559 74 543 90 q 601 57 575 57 q 673 125 663 57 m 393 210 q 390 205 392 208 q 387 201 389 203 q 373 195 380 195 q 361 196 368 195 q 349 197 353 197 q 322 192 335 197 q 300 178 310 186 q 282 157 290 169 q 273 131 275 145 q 274 103 270 115 q 286 81 277 90 q 306 66 294 71 q 332 61 318 61 q 391 79 361 61 q 424 125 419 96 q 410 178 428 149 q 393 210 396 199 m 414 734 q 336 616 403 669 q 205 562 270 562 q 153 585 170 562 q 141 644 136 607 q 203 743 149 691 q 304 810 252 789 q 332 817 321 817 q 351 808 352 817 q 329 786 349 795 q 315 781 323 785 q 296 773 307 778 q 199 681 208 736 q 207 635 195 654 q 247 617 220 617 q 313 637 282 617 q 351 694 344 659 q 351 713 352 703 q 348 738 351 724 q 342 766 342 769 q 362 793 344 778 q 393 808 379 808 q 412 777 406 808 q 414 734 416 751 m 612 807 q 609 800 611 802 q 553 714 585 761 q 480 609 521 667 q 381 471 414 517 q 345 421 348 425 q 248 278 292 343 q 167 161 203 214 q 132 108 153 139 q 81 36 110 77 q 28 1 54 1 q 21 12 18 1 q 23 20 22 16 q 26 29 24 24 q 101 137 34 41 q 293 414 168 233 q 369 525 323 459 q 477 681 415 591 q 510 725 490 699 q 557 786 530 751 q 601 817 582 817 q 612 807 613 817 m 740 165 q 671 55 728 107 q 557 2 614 2 q 490 75 476 2 q 541 170 496 115 q 624 231 586 224 q 647 259 629 245 q 681 273 665 273 q 698 265 684 273 q 740 165 751 234 m 488 165 q 414 57 479 109 q 293 6 349 6 q 258 13 273 6 q 233 30 243 19 q 218 57 222 41 q 218 93 214 73 q 274 186 226 136 q 363 236 323 236 q 385 229 374 236 q 396 219 395 224 q 403 225 399 222 q 414 234 408 229 q 447 248 434 248 q 488 165 500 227 z "},"Â":{"ha":590,"x_min":49,"x_max":692,"o":"m 645 65 q 622 35 642 50 q 587 20 603 20 q 562 28 578 20 q 484 119 503 55 q 252 6 352 6 q 93 115 144 6 q 69 326 49 210 q 243 646 100 500 q 389 762 309 713 q 555 819 483 819 q 652 596 692 819 q 593 398 636 514 q 492 221 538 258 q 472 211 479 211 q 469 214 467 211 l 470 218 q 552 403 521 319 q 595 554 583 487 q 513 765 633 765 q 304 665 417 765 q 134 368 164 538 q 203 104 102 192 q 301 65 247 65 q 403 100 347 65 q 438 125 418 109 q 485 164 458 141 q 537 199 524 199 q 547 190 543 199 q 578 120 565 138 q 639 75 588 111 q 645 65 646 70 m 645 951 q 626 924 643 939 q 597 907 608 907 q 578 943 589 907 q 547 979 566 979 q 488 945 524 979 q 445 911 452 911 q 440 916 440 911 q 501 983 446 942 q 585 1025 557 1025 q 630 1001 610 1025 q 645 951 650 975 z "},"Ê":{"ha":547,"x_min":14,"x_max":657,"o":"m 650 102 q 606 57 645 72 q 431 18 549 35 q 251 2 321 2 q 95 37 155 2 q 29 165 14 80 q 100 290 39 224 q 215 387 149 345 q 121 507 104 410 q 195 642 132 567 q 251 702 222 675 q 311 750 280 729 q 507 819 414 819 q 604 795 562 819 q 648 718 657 767 q 626 669 645 698 q 587 634 606 634 q 585 637 585 634 q 588 646 585 641 q 593 659 590 652 q 602 682 600 673 q 562 752 610 728 q 471 770 523 770 q 264 678 357 770 q 185 549 195 611 q 346 437 165 437 q 354 428 357 437 q 302 380 349 396 q 278 373 292 378 q 245 361 264 368 q 94 203 111 302 q 163 89 81 127 q 316 62 223 62 q 383 68 342 62 q 479 86 424 75 q 644 110 592 110 q 650 102 651 110 m 575 951 q 556 924 573 939 q 528 907 538 907 q 508 943 519 907 q 477 979 496 979 q 418 945 454 979 q 375 911 382 911 q 370 916 370 911 q 431 983 376 942 q 515 1025 488 1025 q 560 1001 541 1025 q 575 951 580 975 z "},"Á":{"ha":590,"x_min":49,"x_max":692,"o":"m 645 65 q 622 35 642 50 q 587 20 603 20 q 562 28 578 20 q 484 119 503 55 q 252 6 352 6 q 93 115 144 6 q 69 326 49 210 q 243 646 100 500 q 389 762 309 713 q 555 819 483 819 q 652 596 692 819 q 593 398 636 514 q 492 221 538 258 q 472 211 479 211 q 469 214 467 211 l 470 218 q 552 403 521 319 q 595 554 583 487 q 513 765 633 765 q 304 665 417 765 q 134 368 164 538 q 203 104 102 192 q 301 65 247 65 q 403 100 347 65 q 438 125 418 109 q 485 164 458 141 q 537 199 524 199 q 547 190 543 199 q 578 120 565 138 q 639 75 588 111 q 645 65 646 70 m 646 1016 q 583 950 643 1000 q 481 880 492 880 q 473 890 469 880 q 566 981 475 904 q 637 1027 621 1027 q 646 1016 647 1027 z "},"Ë":{"ha":547,"x_min":14,"x_max":657,"o":"m 650 102 q 606 57 645 72 q 431 18 549 35 q 251 2 321 2 q 95 37 155 2 q 29 165 14 80 q 100 290 39 224 q 215 387 149 345 q 121 507 104 410 q 195 642 132 567 q 251 702 222 675 q 311 750 280 729 q 507 819 414 819 q 604 795 562 819 q 648 718 657 767 q 626 669 645 698 q 587 634 606 634 q 585 637 585 634 q 588 646 585 641 q 593 659 590 652 q 602 682 600 673 q 562 752 610 728 q 471 770 523 770 q 264 678 357 770 q 185 549 195 611 q 346 437 165 437 q 354 428 357 437 q 302 380 349 396 q 278 373 292 378 q 245 361 264 368 q 94 203 111 302 q 163 89 81 127 q 316 62 223 62 q 383 68 342 62 q 479 86 424 75 q 644 110 592 110 q 650 102 651 110 m 473 999 q 444 970 471 986 q 404 954 418 954 q 397 977 393 954 q 420 1006 399 992 q 457 1021 441 1021 q 473 999 479 1021 m 602 1001 q 577 969 599 984 q 538 954 555 954 q 524 964 521 954 q 543 1004 527 982 q 575 1025 558 1025 q 602 1001 605 1025 z "},"È":{"ha":547,"x_min":14,"x_max":657,"o":"m 650 102 q 606 57 645 72 q 431 18 549 35 q 251 2 321 2 q 95 37 155 2 q 29 165 14 80 q 100 290 39 224 q 215 387 149 345 q 121 507 104 410 q 195 642 132 567 q 251 702 222 675 q 311 750 280 729 q 507 819 414 819 q 604 795 562 819 q 648 718 657 767 q 626 669 645 698 q 587 634 606 634 q 585 637 585 634 q 588 646 585 641 q 593 659 590 652 q 602 682 600 673 q 562 752 610 728 q 471 770 523 770 q 264 678 357 770 q 185 549 195 611 q 346 437 165 437 q 354 428 357 437 q 302 380 349 396 q 278 373 292 378 q 245 361 264 368 q 94 203 111 302 q 163 89 81 127 q 316 62 223 62 q 383 68 342 62 q 479 86 424 75 q 644 110 592 110 q 650 102 651 110 m 485 890 q 473 880 483 880 q 397 950 460 880 q 355 1016 352 1000 q 368 1027 356 1027 q 422 981 385 1027 q 485 890 488 904 z "},"Í":{"ha":130,"x_min":14,"x_max":369,"o":"m 259 803 q 234 732 259 800 q 222 694 229 718 q 205 634 214 669 q 95 116 154 456 q 75 39 85 63 q 23 -1 58 -1 q 20 33 14 -1 q 54 206 22 50 q 120 497 87 372 q 187 714 153 623 q 256 821 226 821 q 259 803 262 821 m 368 1016 q 304 950 365 1000 q 203 880 214 880 q 195 890 191 880 q 288 981 197 904 q 359 1027 342 1027 q 368 1016 369 1027 z "},"Î":{"ha":130,"x_min":14,"x_max":373,"o":"m 259 803 q 234 732 259 800 q 222 694 229 718 q 205 634 214 669 q 95 116 154 456 q 75 39 85 63 q 23 -1 58 -1 q 20 33 14 -1 q 54 206 22 50 q 120 497 87 372 q 187 714 153 623 q 256 821 226 821 q 259 803 262 821 m 368 951 q 349 924 366 939 q 321 907 332 907 q 301 943 313 907 q 270 979 290 979 q 212 945 247 979 q 168 911 176 911 q 163 916 163 911 q 224 983 169 942 q 308 1025 281 1025 q 353 1001 334 1025 q 368 951 373 975 z "},"Ï":{"ha":130,"x_min":14,"x_max":384,"o":"m 259 803 q 234 732 259 800 q 222 694 229 718 q 205 634 214 669 q 95 116 154 456 q 75 39 85 63 q 23 -1 58 -1 q 20 33 14 -1 q 54 206 22 50 q 120 497 87 372 q 187 714 153 623 q 256 821 226 821 q 259 803 262 821 m 252 999 q 223 970 250 986 q 183 954 197 954 q 176 977 172 954 q 199 1006 178 992 q 236 1021 220 1021 q 252 999 258 1021 m 381 1001 q 356 969 378 984 q 317 954 334 954 q 302 964 300 954 q 321 1004 306 982 q 354 1025 337 1025 q 381 1001 384 1025 z "},"Ì":{"ha":130,"x_min":14,"x_max":294,"o":"m 259 803 q 234 732 259 800 q 222 694 229 718 q 205 634 214 669 q 95 116 154 456 q 75 39 85 63 q 23 -1 58 -1 q 20 33 14 -1 q 54 206 22 50 q 120 497 87 372 q 187 714 153 623 q 256 821 226 821 q 259 803 262 821 m 292 890 q 279 880 290 880 q 204 950 267 880 q 162 1016 159 1000 q 175 1027 163 1027 q 229 981 191 1027 q 292 890 294 904 z "},"Ó":{"ha":597,"x_min":47,"x_max":686,"o":"m 662 444 q 547 186 635 298 q 404 59 485 109 q 231 2 313 2 q 85 88 127 2 q 66 270 47 162 q 136 475 80 343 q 155 515 142 490 q 180 532 168 532 q 184 529 183 531 q 172 499 178 517 q 155 457 165 481 q 111 315 121 374 q 127 139 93 212 q 265 54 167 54 q 469 146 374 54 q 597 398 570 245 q 575 633 621 529 q 404 755 525 755 q 274 716 340 755 q 230 687 254 705 q 177 645 206 669 q 120 606 132 606 q 110 614 109 606 q 126 637 113 623 q 277 760 191 708 q 452 819 373 819 q 637 691 581 819 q 662 444 686 583 m 591 1016 q 527 950 587 1000 q 426 880 436 880 q 417 890 414 880 q 511 981 419 904 q 581 1027 565 1027 q 591 1016 591 1027 z "},"Ô":{"ha":597,"x_min":47,"x_max":686,"o":"m 662 444 q 547 186 635 298 q 404 59 485 109 q 231 2 313 2 q 85 88 127 2 q 66 270 47 162 q 136 475 80 343 q 155 515 142 490 q 180 532 168 532 q 184 529 183 531 q 172 499 178 517 q 155 457 165 481 q 111 315 121 374 q 127 139 93 212 q 265 54 167 54 q 469 146 374 54 q 597 398 570 245 q 575 633 621 529 q 404 755 525 755 q 274 716 340 755 q 230 687 254 705 q 177 645 206 669 q 120 606 132 606 q 110 614 109 606 q 126 637 113 623 q 277 760 191 708 q 452 819 373 819 q 637 691 581 819 q 662 444 686 583 m 575 951 q 556 924 573 939 q 528 907 538 907 q 508 943 519 907 q 477 979 496 979 q 418 945 454 979 q 375 911 382 911 q 370 916 370 911 q 431 983 376 942 q 515 1025 488 1025 q 560 1001 541 1025 q 575 951 580 975 z "},"Ò":{"ha":597,"x_min":47,"x_max":686,"o":"m 662 444 q 547 186 635 298 q 404 59 485 109 q 231 2 313 2 q 85 88 127 2 q 66 270 47 162 q 136 475 80 343 q 155 515 142 490 q 180 532 168 532 q 184 529 183 531 q 172 499 178 517 q 155 457 165 481 q 111 315 121 374 q 127 139 93 212 q 265 54 167 54 q 469 146 374 54 q 597 398 570 245 q 575 633 621 529 q 404 755 525 755 q 274 716 340 755 q 230 687 254 705 q 177 645 206 669 q 120 606 132 606 q 110 614 109 606 q 126 637 113 623 q 277 760 191 708 q 452 819 373 819 q 637 691 581 819 q 662 444 686 583 m 498 890 q 486 880 496 880 q 411 950 473 880 q 369 1016 366 1000 q 382 1027 370 1027 q 436 981 398 1027 q 498 890 501 904 z "},"Ú":{"ha":621,"x_min":68,"x_max":732,"o":"m 707 590 q 471 118 653 290 q 252 7 352 7 q 88 192 115 7 q 100 491 68 316 q 118 570 104 509 q 160 741 133 632 q 164 759 161 748 q 172 783 167 769 q 197 803 182 803 q 198 779 201 803 q 189 731 195 760 q 175 663 183 702 q 161 596 167 625 q 152 547 155 567 q 140 248 121 374 q 296 57 166 57 q 366 77 324 57 q 642 564 575 183 q 649 608 646 581 q 658 671 653 635 q 667 735 663 708 q 675 779 671 762 q 696 805 676 789 q 728 821 718 821 q 732 814 732 821 q 726 718 732 774 q 707 590 720 662 m 576 1016 q 513 950 573 1000 q 412 880 422 880 q 403 890 399 880 q 496 981 405 904 q 567 1027 551 1027 q 576 1016 577 1027 z "},"Û":{"ha":621,"x_min":68,"x_max":732,"o":"m 707 590 q 471 118 653 290 q 252 7 352 7 q 88 192 115 7 q 100 491 68 316 q 118 570 104 509 q 160 741 133 632 q 164 759 161 748 q 172 783 167 769 q 197 803 182 803 q 198 779 201 803 q 189 731 195 760 q 175 663 183 702 q 161 596 167 625 q 152 547 155 567 q 140 248 121 374 q 296 57 166 57 q 366 77 324 57 q 642 564 575 183 q 649 608 646 581 q 658 671 653 635 q 667 735 663 708 q 675 779 671 762 q 696 805 676 789 q 728 821 718 821 q 732 814 732 821 q 726 718 732 774 q 707 590 720 662 m 575 951 q 556 924 573 939 q 528 907 538 907 q 508 943 519 907 q 477 979 496 979 q 418 945 454 979 q 375 911 382 911 q 370 916 370 911 q 431 983 376 942 q 515 1025 488 1025 q 560 1001 541 1025 q 575 951 580 975 z "},"Ù":{"ha":621,"x_min":68,"x_max":732,"o":"m 707 590 q 471 118 653 290 q 252 7 352 7 q 88 192 115 7 q 100 491 68 316 q 118 570 104 509 q 160 741 133 632 q 164 759 161 748 q 172 783 167 769 q 197 803 182 803 q 198 779 201 803 q 189 731 195 760 q 175 663 183 702 q 161 596 167 625 q 152 547 155 567 q 140 248 121 374 q 296 57 166 57 q 366 77 324 57 q 642 564 575 183 q 649 608 646 581 q 658 671 653 635 q 667 735 663 708 q 675 779 671 762 q 696 805 676 789 q 728 821 718 821 q 732 814 732 821 q 726 718 732 774 q 707 590 720 662 m 498 890 q 486 880 496 880 q 411 950 473 880 q 369 1016 366 1000 q 382 1027 370 1027 q 436 981 398 1027 q 498 890 501 904 z "},"":{"ha":271,"x_min":190,"x_max":399,"o":"m 395 951 q 376 924 393 939 q 347 907 358 907 q 328 943 339 907 q 296 979 316 979 q 238 945 273 979 q 195 911 202 911 q 190 916 190 911 q 251 983 195 942 q 334 1025 307 1025 q 380 1001 360 1025 q 395 951 399 975 z "},"":{"ha":315,"x_min":184,"x_max":480,"o":"m 479 1030 q 431 957 473 996 q 354 918 389 918 q 298 951 328 918 q 251 984 270 984 q 221 956 243 984 q 186 928 199 928 q 185 935 184 928 l 195 951 q 298 1025 241 1025 q 352 999 321 1025 q 401 972 383 972 q 416 992 408 982 q 431 1013 423 1002 q 470 1037 454 1037 q 479 1030 480 1037 z "},"˚":{"ha":206,"x_min":177,"x_max":375,"o":"m 311 988 q 299 1031 315 1013 q 260 1055 283 1050 q 237 1019 241 1036 q 245 985 234 1000 q 274 970 256 970 q 311 988 308 970 m 368 1027 q 319 953 361 984 q 236 922 280 922 q 189 984 177 922 q 239 1060 197 1030 q 231 1067 227 1058 q 255 1099 233 1087 q 298 1111 276 1111 q 354 1086 334 1111 q 368 1027 375 1061 z "},"ˇ":{"ha":271,"x_min":197,"x_max":407,"o":"m 406 1016 q 345 948 401 989 q 262 907 289 907 q 216 931 236 907 q 201 981 197 956 q 220 1008 203 994 q 249 1025 237 1025 q 268 989 256 1025 q 300 953 279 953 q 358 987 322 953 q 403 1021 394 1021 q 406 1016 407 1021 z "}," ":{"ha":486,"x_min":0,"x_max":0,"o":""}," ":{"ha":486,"x_min":0,"x_max":0,"o":""},"":{"ha":557,"x_min":3,"x_max":605,"o":"m 578 195 q 562 154 574 176 q 439 36 524 75 q 277 2 365 2 q 235 4 256 2 q 192 12 214 7 q 71 60 123 26 q 14 165 3 106 q 33 211 18 189 q 68 241 49 239 l 69 237 q 65 230 68 235 q 59 217 62 224 q 54 203 56 210 q 50 193 51 197 q 140 80 38 123 q 304 47 218 47 q 433 67 377 47 q 521 159 511 96 q 441 334 534 237 q 262 496 350 416 q 180 673 167 594 q 243 763 190 725 q 345 808 287 795 q 399 816 370 813 q 460 819 427 819 q 542 816 507 819 q 600 808 576 813 q 604 801 605 806 q 584 772 601 787 q 551 758 566 758 q 522 759 541 758 q 481 761 503 760 q 441 763 460 762 q 413 764 422 764 q 243 707 252 764 q 324 543 231 637 q 412 461 369 501 q 500 380 455 420 q 578 195 593 279 m 559 1016 q 498 948 553 989 q 414 907 441 907 q 369 931 389 907 q 354 981 349 956 q 373 1008 356 994 q 401 1025 390 1025 q 420 989 409 1025 q 452 953 432 953 q 511 987 475 953 q 555 1021 547 1021 q 559 1016 559 1021 z "},"":{"ha":285,"x_min":12,"x_max":362,"o":"m 349 282 q 345 275 348 279 q 337 269 341 272 q 328 264 332 266 q 319 262 323 262 l 303 262 q 269 263 288 262 q 243 264 251 264 q 144 235 182 264 q 220 182 144 233 q 257 104 265 149 q 187 26 248 54 q 83 2 137 2 q 14 15 12 2 q 33 41 16 27 q 61 58 47 56 q 131 60 66 60 q 195 71 193 60 q 142 150 203 111 q 83 203 80 189 q 167 279 90 244 q 281 308 233 308 q 321 302 298 308 q 349 282 351 294 m 361 517 q 300 450 356 491 q 217 409 244 409 q 172 433 191 409 q 157 482 152 458 q 176 510 159 495 q 204 527 193 527 q 223 490 212 527 q 255 454 235 454 q 313 488 277 454 q 358 522 349 522 q 361 517 362 522 z "},"Ý":{"ha":534,"x_min":94,"x_max":660,"o":"m 657 742 q 646 703 656 731 q 619 627 637 674 q 578 524 604 585 q 519 380 553 463 q 457 234 482 295 q 418 134 433 174 q 385 44 409 106 q 331 0 366 0 q 323 13 321 0 q 339 71 326 31 q 376 172 353 110 q 443 330 404 235 q 536 554 483 425 q 237 338 373 338 q 116 427 143 338 q 113 598 94 496 q 134 686 120 642 q 167 775 147 730 q 173 787 170 781 q 182 803 177 794 q 211 824 193 821 l 214 821 l 214 819 q 195 764 213 819 q 162 646 171 696 q 164 481 146 549 q 277 391 189 391 q 566 661 406 391 q 577 683 570 670 q 594 713 585 695 q 649 755 621 755 q 657 742 660 755 m 549 1016 q 485 950 545 1000 q 384 880 394 880 q 375 890 372 880 q 469 981 377 904 q 539 1027 523 1027 q 549 1016 549 1027 z "},"ý":{"ha":321,"x_min":14,"x_max":348,"o":"m 331 104 q 298 -24 321 50 q 239 -194 275 -97 q 231 -208 237 -201 q 219 -220 226 -215 q 203 -230 212 -226 q 189 -233 195 -233 q 185 -214 182 -233 q 200 -155 190 -190 q 227 -73 211 -120 q 252 8 242 -26 q 267 67 262 43 q 272 113 270 91 q 272 154 273 134 q 103 2 178 2 q 47 192 14 2 q 105 308 62 278 q 116 311 109 311 q 113 298 125 311 q 96 229 106 289 q 92 123 85 172 q 141 54 99 54 q 270 228 178 54 q 292 252 274 239 q 319 267 310 267 q 329 259 328 267 q 331 104 348 205 m 337 517 q 273 452 334 502 q 172 381 182 381 q 163 391 160 381 q 257 482 165 406 q 328 528 311 528 q 337 517 338 528 z "},"­":{"ha":315,"x_min":41,"x_max":329,"o":"m 328 176 q 309 151 326 166 q 280 134 292 136 q 254 132 269 133 q 219 131 239 131 l 203 131 q 169 132 187 131 q 142 133 151 133 q 121 132 136 133 q 93 131 105 131 l 80 131 q 43 139 41 131 q 64 161 45 150 q 303 185 103 185 q 328 176 329 185 z "},"×":{"ha":264,"x_min":26,"x_max":289,"o":"m 288 262 q 241 213 285 246 l 180 172 q 250 81 252 96 q 234 58 249 71 q 210 46 220 46 q 132 131 201 46 q 106 106 119 119 q 81 82 93 94 q 30 44 39 44 q 26 49 26 44 q 117 148 31 72 q 72 223 68 208 q 76 232 73 227 q 84 240 79 236 q 93 247 88 244 q 102 249 98 249 q 163 189 109 249 q 282 269 254 269 q 288 262 289 269 z "},"İ":{"ha":106,"x_min":18,"x_max":142,"o":"m 140 306 q 128 248 142 292 l 105 178 q 68 36 94 140 q 49 14 67 27 q 23 0 31 0 q 18 6 18 0 q 27 66 18 30 q 56 153 37 103 q 78 211 64 176 q 113 290 92 245 q 136 309 123 309 q 140 306 139 309 z "}}}
